<svg width="250" height="219" viewBox="0 0 250 219" fill="none" xmlns="http://www.w3.org/2000/svg">
<g clip-path="url(#clip0_31_13)">
<path d="M118.225 50.4607H106.125C106.125 47.1072 105.536 44.2523 104.358 41.8958C103.27 39.5394 101.775 37.6361 99.8717 36.1859C97.9684 34.6452 95.7479 33.5576 93.2101 32.9231C90.763 32.1981 88.18 31.7902 85.461 31.6996C81.02 31.6996 76.8508 32.6059 72.9536 34.4186C69.147 36.1406 65.8389 38.6783 63.0292 42.0318C60.129 45.3852 57.8631 49.5543 56.2317 54.5392C54.691 59.4334 53.9206 65.0073 53.9206 71.261C53.9206 74.7051 54.3284 78.8289 55.1441 83.6325C55.9598 88.3454 57.5912 92.8771 60.0383 97.2275C62.5761 101.578 66.1108 105.339 70.6424 108.511C75.1741 111.593 81.2012 113.179 88.7238 113.27C91.9866 113.36 95.1134 113.134 98.1043 112.59C101.186 112.046 103.905 111.321 106.261 110.415V79.1461H82.606V69.7656H117.137V115.717C112.515 117.801 108.301 119.297 104.494 120.203C100.687 121.109 97.4246 121.744 94.7056 122.106C91.9866 122.469 89.8567 122.605 88.3159 122.514C86.8658 122.424 86.1407 122.378 86.1407 122.378C78.4369 122.378 71.7754 120.883 66.1561 117.892C60.6274 114.81 56.0505 110.823 52.4251 105.928C48.8904 101.034 46.2621 95.5055 44.54 89.3424C42.818 83.1793 41.957 76.9709 41.957 70.7172C41.957 64.5542 42.818 58.5724 44.54 52.7718C46.3527 46.9713 49.0717 41.8505 52.697 37.4095C56.3224 32.9684 60.854 29.3884 66.292 26.6694C71.73 23.9504 78.1197 22.5909 85.461 22.5909C89.8114 22.5909 93.9352 23.2707 97.8324 24.6302C101.82 25.899 105.31 27.7117 108.301 30.0682C111.292 32.5153 113.648 35.4609 115.37 38.9049C117.183 42.349 118.134 46.2009 118.225 50.4607Z" fill="#F02FA3"/>
<path d="M118.225 50.4607V57.4607H125.375L125.223 50.3118L118.225 50.4607ZM106.125 50.4607H99.1254V57.4607H106.125V50.4607ZM104.358 41.8958L98.0023 44.8292L98.0482 44.9285L98.0971 45.0263L104.358 41.8958ZM99.8717 36.1859L95.4673 41.6266L95.5474 41.6915L95.6294 41.7539L99.8717 36.1859ZM93.2101 32.9231L91.2215 39.6347L91.3661 39.6775L91.5124 39.7141L93.2101 32.9231ZM85.461 31.6996L85.6942 24.7035L85.5776 24.6996H85.461V31.6996ZM72.9536 34.4186L75.8388 40.7963L75.8723 40.7811L75.9057 40.7656L72.9536 34.4186ZM63.0292 42.0318L68.3238 46.6108L68.3597 46.5694L68.3949 46.5273L63.0292 42.0318ZM56.2317 54.5392L49.5789 52.3619L49.5667 52.3995L49.5548 52.4372L56.2317 54.5392ZM55.1441 83.6325L48.2429 84.8044L48.2448 84.8153L48.2467 84.8263L55.1441 83.6325ZM60.0383 97.2275L53.9373 100.659L53.9642 100.707L53.9919 100.755L60.0383 97.2275ZM70.6424 108.511L66.6282 114.246L66.6671 114.273L66.7063 114.3L70.6424 108.511ZM88.7238 113.27L88.9182 106.272L88.8632 106.271L88.8081 106.27L88.7238 113.27ZM98.1043 112.59L96.8879 105.696L96.87 105.7L96.8521 105.703L98.1043 112.59ZM106.261 110.415L108.774 116.948L113.261 115.222V110.415H106.261ZM106.261 79.1461H113.261V72.1461H106.261V79.1461ZM82.606 79.1461H75.606V86.1461H82.606V79.1461ZM82.606 69.7656V62.7656H75.606V69.7656H82.606ZM117.137 69.7656H124.137V62.7656H117.137V69.7656ZM117.137 115.717L120.015 122.098L124.137 120.239V115.717H117.137ZM104.494 120.203L106.115 127.013L106.115 127.013L104.494 120.203ZM94.7056 122.106L95.6307 129.045L94.7056 122.106ZM88.3159 122.514L87.8793 129.501L87.8921 129.501L87.9049 129.502L88.3159 122.514ZM86.1407 122.378L86.5774 115.392L86.3593 115.378H86.1407V122.378ZM66.1561 117.892L62.7481 124.006L62.8073 124.039L62.8671 124.071L66.1561 117.892ZM52.4251 105.928L46.7504 110.027L46.7751 110.061L46.8002 110.095L52.4251 105.928ZM44.54 89.3424L37.7982 91.2261L44.54 89.3424ZM44.54 52.7718L37.8587 50.6839L37.8437 50.7317L37.8295 50.7796L44.54 52.7718ZM66.292 26.6694L69.4225 32.9304L69.4225 32.9304L66.292 26.6694ZM97.8324 24.6302L95.5268 31.2396L95.618 31.2714L95.71 31.3007L97.8324 24.6302ZM108.301 30.0682L112.733 24.6505L112.683 24.6096L112.633 24.5697L108.301 30.0682ZM115.37 38.9049L109.109 42.0354L109.142 42.1006L109.176 42.1651L115.37 38.9049ZM118.225 43.4607H106.125V57.4607H118.225V43.4607ZM113.125 50.4607C113.125 46.3085 112.397 42.3222 110.619 38.7653L98.0971 45.0263C98.6751 46.1824 99.1254 47.906 99.1254 50.4607H113.125ZM110.714 38.9624C109.189 35.6583 107.002 32.8182 104.114 30.6179L95.6294 41.7539C96.5481 42.4539 97.3521 43.4204 98.0023 44.8292L110.714 38.9624ZM104.276 30.7452C101.526 28.5193 98.3667 26.9968 94.9079 26.1321L91.5124 39.7141C93.1291 40.1183 94.4104 40.771 95.4673 41.6266L104.276 30.7452ZM95.1988 26.2115C92.1447 25.3066 88.969 24.8126 85.6942 24.7035L85.2278 38.6957C87.391 38.7678 89.3814 39.0895 91.2215 39.6347L95.1988 26.2115ZM85.461 24.6996C80.035 24.6996 74.8545 25.8143 70.0015 28.0715L75.9057 40.7656C78.8471 39.3975 82.005 38.6996 85.461 38.6996V24.6996ZM70.0684 28.0408C65.2589 30.2166 61.1156 33.4161 57.6636 37.5362L68.3949 46.5273C70.5621 43.9406 73.0351 42.0647 75.8388 40.7963L70.0684 28.0408ZM57.7347 37.4527C54.1263 41.6249 51.4473 46.6531 49.5789 52.3619L62.8845 56.7165C64.279 52.4556 66.1317 49.1455 68.3238 46.6108L57.7347 37.4527ZM49.5548 52.4372C47.7591 58.1413 46.9206 64.4445 46.9206 71.261H60.9206C60.9206 65.5702 61.6229 60.7255 62.9087 56.6412L49.5548 52.4372ZM46.9206 71.261C46.9206 75.2218 47.3861 79.7588 48.2429 84.8044L62.0453 82.4606C61.2707 77.899 60.9206 74.1884 60.9206 71.261H46.9206ZM48.2467 84.8263C49.2043 90.3591 51.1164 95.6444 53.9373 100.659L66.1394 93.7957C64.0661 90.1098 62.7154 86.3318 62.0416 82.4387L48.2467 84.8263ZM53.9919 100.755C57.0878 106.062 61.3499 110.551 66.6282 114.246L74.6567 102.777C70.8717 100.127 68.0643 97.0939 66.0848 93.7004L53.9919 100.755ZM66.7063 114.3C72.7262 118.393 80.2388 120.168 88.6395 120.269L88.8081 106.27C82.1637 106.19 77.622 104.792 74.5786 102.723L66.7063 114.3ZM88.5294 120.267C92.2416 120.37 95.855 120.114 99.3565 119.477L96.8521 105.703C94.3719 106.154 91.7316 106.35 88.9182 106.272L88.5294 120.267ZM99.3208 119.483C102.745 118.879 105.913 118.049 108.774 116.948L103.749 103.881C101.897 104.593 99.6271 105.213 96.8879 105.696L99.3208 119.483ZM113.261 110.415V79.1461H99.2614V110.415H113.261ZM106.261 72.1461H82.606V86.1461H106.261V72.1461ZM89.606 79.1461V69.7656H75.606V79.1461H89.606ZM82.606 76.7656H117.137V62.7656H82.606V76.7656ZM110.137 69.7656V115.717H124.137V69.7656H110.137ZM114.26 109.336C109.93 111.288 106.143 112.615 102.873 113.393L106.115 127.013C110.458 125.979 115.1 124.314 120.015 122.098L114.26 109.336ZM102.873 113.393C99.2078 114.266 96.1902 114.846 93.7805 115.168L95.6307 129.045C98.659 128.641 102.167 127.953 106.115 127.013L102.873 113.393ZM93.7805 115.168C91.2199 115.509 89.6057 115.578 88.727 115.526L87.9049 129.502C90.1077 129.632 92.7533 129.429 95.6307 129.045L93.7805 115.168ZM88.7526 115.528C88.2593 115.497 88.9768 115.542 88.4892 115.511C88.4505 115.509 88.5119 115.513 88.4733 115.51C88.4706 115.51 88.468 115.51 88.4654 115.51C88.4627 115.51 88.4601 115.51 88.4575 115.509C88.2869 115.499 88.5964 115.518 88.426 115.507C88.4089 115.506 88.4274 115.508 88.4104 115.506C88.3635 115.504 88.4417 115.508 88.3948 115.505C88.3272 115.501 88.4313 115.508 88.3639 115.504C88.2819 115.498 88.4305 115.508 88.3485 115.503C88.2932 115.499 88.3885 115.505 88.3332 115.502C87.9849 115.48 88.651 115.521 88.3028 115.5C87.9659 115.479 88.5793 115.517 88.2428 115.496C88.2219 115.495 88.1454 115.49 88.1259 115.489C87.8394 115.471 88.2985 115.499 88.0134 115.482C87.7467 115.465 88.1703 115.491 87.905 115.475C87.5502 115.453 88.1543 115.49 87.8009 115.468C87.7417 115.465 87.7589 115.466 87.7011 115.462C87.4303 115.445 87.8749 115.473 87.6055 115.456C87.0668 115.422 88.0515 115.484 87.5142 115.45C87.3546 115.44 87.6293 115.458 87.4701 115.448C87.4228 115.445 87.474 115.448 87.4271 115.445C87.2468 115.434 87.4403 115.446 87.2656 115.435C86.9971 115.418 87.3841 115.442 87.1212 115.426C86.5756 115.392 87.1683 115.429 86.7133 115.4C86.6 115.393 86.7615 115.403 86.6539 115.397C86.5765 115.392 86.6831 115.399 86.6114 115.394C86.6004 115.393 86.6202 115.395 86.6093 115.394C86.6017 115.393 86.6148 115.394 86.6073 115.394C86.6032 115.394 86.6074 115.394 86.6034 115.394C86.5613 115.391 86.6383 115.396 86.5965 115.393C86.5299 115.389 86.651 115.396 86.5859 115.392C86.5853 115.392 86.5824 115.392 86.5822 115.392C86.5816 115.392 86.5797 115.392 86.5795 115.392C86.5778 115.392 86.5802 115.392 86.5786 115.392C86.577 115.392 86.5794 115.392 86.5779 115.392C86.5779 115.392 86.5778 115.392 86.5778 115.392C86.5778 115.392 86.5777 115.392 86.5777 115.392C86.5777 115.392 86.5776 115.392 86.5776 115.392C86.5776 115.392 86.5775 115.392 86.5775 115.392C86.5775 115.392 86.5775 115.392 86.5775 115.392C86.5774 115.392 86.5774 115.392 86.5774 115.392C86.5774 115.392 86.5774 115.392 86.5774 115.392C86.5774 115.392 86.5774 115.392 86.1407 122.378C85.7041 129.365 85.7041 129.365 85.7041 129.365C85.7041 129.365 85.7041 129.365 85.7041 129.365C85.7045 129.365 85.7039 129.365 85.7042 129.365C85.7043 129.365 85.7043 129.365 85.7043 129.365C85.7043 129.365 85.7044 129.365 85.7044 129.365C85.7044 129.365 85.7045 129.365 85.7045 129.365C85.7045 129.365 85.7046 129.365 85.7046 129.365C85.7075 129.365 85.7023 129.365 85.7053 129.365C85.7054 129.365 85.7054 129.365 85.7055 129.365C85.7056 129.365 85.7056 129.365 85.7057 129.365C85.7117 129.365 85.7003 129.364 85.7062 129.365C85.7202 129.366 85.6972 129.364 85.7126 129.365C85.7598 129.368 85.6852 129.363 85.7381 129.367C85.7405 129.367 85.7399 129.367 85.7425 129.367C85.7428 129.367 85.7432 129.367 85.7436 129.367C85.744 129.367 85.7444 129.367 85.7448 129.367C85.7451 129.367 85.7455 129.367 85.7459 129.367C85.7463 129.367 85.7467 129.367 85.7471 129.367C85.8496 129.374 85.6494 129.361 85.752 129.368C85.9219 129.378 85.5872 129.357 85.7572 129.368C85.8174 129.372 85.719 129.366 85.7806 129.369C85.8529 129.374 85.7211 129.366 85.7938 129.37C85.7955 129.37 85.7956 129.37 85.7973 129.37C85.7979 129.37 85.7985 129.371 85.7991 129.371C85.7997 129.371 85.8003 129.371 85.8009 129.371C85.8309 129.373 85.778 129.369 85.8082 129.371C85.8185 129.372 85.8129 129.371 85.8236 129.372C85.824 129.372 85.8311 129.373 85.8317 129.373C85.8507 129.374 85.821 129.372 85.84 129.373C86.1648 129.393 85.586 129.357 85.9165 129.378C86.0901 129.389 85.7861 129.37 85.9611 129.381C86.2182 129.397 85.7515 129.368 86.01 129.384C86.259 129.399 85.9762 129.382 86.2479 129.399C86.4846 129.413 86.0799 129.388 86.318 129.403C86.4424 129.411 86.2299 129.397 86.3546 129.405C86.486 129.414 86.2606 129.399 86.3923 129.408C86.438 129.411 86.4239 129.41 86.4709 129.413C86.6254 129.422 86.3979 129.408 86.5538 129.418C86.8861 129.439 86.3071 129.402 86.6409 129.423C86.7225 129.428 86.604 129.421 86.686 129.426C86.7623 129.431 86.6327 129.423 86.709 129.427C86.7109 129.428 86.7128 129.428 86.7148 129.428C86.7167 129.428 86.7186 129.428 86.7206 129.428C86.7225 129.428 86.7244 129.428 86.7264 129.429C86.7283 129.429 86.7303 129.429 86.7322 129.429C86.7478 129.43 86.7636 129.431 86.7795 129.432C86.846 129.436 86.7609 129.431 86.8278 129.435C87.0201 129.447 86.7339 129.429 86.9276 129.441C87.1636 129.456 86.8985 129.439 87.1401 129.454C87.1585 129.456 87.1771 129.457 87.1958 129.458C87.4369 129.473 87.0112 129.446 87.2527 129.461C87.2721 129.463 87.3486 129.467 87.3695 129.469C87.4063 129.471 87.3624 129.468 87.3994 129.471C87.4062 129.471 87.4226 129.472 87.4295 129.472C87.531 129.479 87.3887 129.47 87.4906 129.476C87.4931 129.476 87.4957 129.477 87.4983 129.477C87.5008 129.477 87.5034 129.477 87.506 129.477C87.5086 129.477 87.5112 129.478 87.5137 129.478C87.5163 129.478 87.5189 129.478 87.5215 129.478C87.6907 129.489 87.3834 129.47 87.5527 129.48C87.6679 129.487 87.5003 129.477 87.6159 129.484C87.7008 129.489 87.7887 129.495 87.8793 129.501L88.7526 115.528ZM86.1407 115.378C79.3448 115.378 73.8599 114.063 69.445 111.713L62.8671 124.071C69.6908 127.703 77.529 129.378 86.1407 129.378V115.378ZM69.5641 111.778C64.8695 109.161 61.0599 105.825 58.05 101.762L46.8002 110.095C51.0411 115.82 56.3854 120.46 62.7481 124.006L69.5641 111.778ZM58.0999 101.83C55.0771 97.6445 52.795 92.8744 51.2818 87.4587L37.7982 91.2261C39.7291 98.1365 42.7037 104.424 46.7504 110.027L58.0999 101.83ZM51.2818 87.4587C49.7271 81.8945 48.957 76.3195 48.957 70.7172H34.957C34.957 77.6224 35.9089 84.4642 37.7982 91.2261L51.2818 87.4587ZM48.957 70.7172C48.957 65.2161 49.7241 59.9059 51.2506 54.764L37.8295 50.7796C35.9119 57.2389 34.957 63.8923 34.957 70.7172H48.957ZM51.2214 54.8598C52.7838 49.8601 55.0927 45.5442 58.1197 41.8361L47.2744 32.9828C43.0507 38.1568 39.9216 44.0825 37.8587 50.6839L51.2214 54.8598ZM58.1197 41.8361C61.0817 38.2076 64.8151 35.2341 69.4225 32.9304L63.1615 20.4084C56.893 23.5427 51.563 27.7293 47.2744 32.9828L58.1197 41.8361ZM69.4225 32.9304C73.7072 30.7881 78.9837 29.5909 85.461 29.5909V15.5909C77.2557 15.5909 69.7529 17.1128 63.1615 20.4084L69.4225 32.9304ZM85.461 29.5909C89.0691 29.5909 92.4101 30.1523 95.5268 31.2396L100.138 18.0208C95.4603 16.389 90.5537 15.5909 85.461 15.5909V29.5909ZM95.71 31.3007C98.9762 32.3399 101.7 33.7794 103.969 35.5666L112.633 24.5697C108.919 21.644 104.664 19.4582 99.9549 17.9597L95.71 31.3007ZM103.868 35.4859C106.098 37.3103 107.83 39.4774 109.109 42.0354L121.631 35.7744C119.466 31.4443 116.485 27.7202 112.733 24.6505L103.868 35.4859ZM109.176 42.1651C110.436 44.56 111.157 47.3307 111.227 50.6096L125.223 50.3118C125.112 45.0712 123.929 40.138 121.564 35.6447L109.176 42.1651Z" fill="#F02FA3"/>
<path d="M206.527 94.5836C206.527 98.591 205.753 102.416 204.205 106.059C202.747 109.703 200.698 112.89 198.057 115.623C195.416 118.355 192.182 120.541 188.357 122.18C184.623 123.729 180.433 124.503 175.788 124.503C170.779 124.503 166.498 123.865 162.946 122.59C159.485 121.224 156.616 119.539 154.339 117.535C152.153 115.532 150.559 113.391 149.558 111.114C148.556 108.746 148.055 106.515 148.055 104.42H160.624C160.624 105.513 160.851 106.788 161.307 108.245C161.853 109.612 162.718 110.932 163.902 112.207C165.086 113.391 166.635 114.439 168.547 115.349C170.46 116.169 172.828 116.579 175.652 116.579C181.389 116.579 186.08 114.575 189.723 110.568C193.366 106.469 195.324 101.05 195.598 94.3104C195.598 87.7527 193.776 82.6068 190.133 78.8726C186.581 75.1384 182.255 73.0891 177.154 72.7248C173.602 72.5427 170.688 73.1347 168.411 74.5008C166.134 75.867 164.176 77.643 162.536 79.8289H151.88L154.339 26.8214H200.789V36.3846H164.039L162.536 69.3094C164.176 68.2164 166.27 67.2146 168.821 66.3038C171.462 65.3019 174.513 64.801 177.974 64.801C186.718 64.801 193.639 67.5789 198.74 73.1347C203.931 78.6904 206.527 85.8401 206.527 94.5836Z" fill="#F02FA3"/>
<path d="M204.205 106.059L197.762 103.321L197.733 103.39L197.705 103.46L204.205 106.059ZM198.057 115.623L203.09 120.488L203.09 120.488L198.057 115.623ZM188.357 122.18L191.038 128.646L191.076 128.631L191.114 128.614L188.357 122.18ZM162.946 122.59L160.376 129.101L160.478 129.141L160.581 129.179L162.946 122.59ZM154.339 117.535L149.609 122.695L149.662 122.743L149.715 122.79L154.339 117.535ZM149.558 111.114L143.111 113.842L143.13 113.888L143.15 113.933L149.558 111.114ZM148.055 104.42V97.42H141.055V104.42H148.055ZM160.624 104.42H167.624V97.42H160.624V104.42ZM161.307 108.245L154.625 110.333L154.706 110.593L154.807 110.845L161.307 108.245ZM163.902 112.207L158.773 116.97L158.861 117.065L158.953 117.157L163.902 112.207ZM168.547 115.349L165.538 121.669L165.663 121.729L165.79 121.783L168.547 115.349ZM189.723 110.568L194.903 115.277L194.929 115.248L194.955 115.218L189.723 110.568ZM195.598 94.3104L202.592 94.5939L202.598 94.4522V94.3104H195.598ZM190.133 78.8726L185.061 83.6971L185.092 83.7292L185.123 83.7609L190.133 78.8726ZM177.154 72.7248L177.653 65.7426L177.583 65.7376L177.513 65.734L177.154 72.7248ZM168.411 74.5008L164.809 68.4984L164.809 68.4984L168.411 74.5008ZM162.536 79.8289V86.8289H166.036L168.136 84.0289L162.536 79.8289ZM151.88 79.8289L144.888 79.5045L144.548 86.8289H151.88V79.8289ZM154.339 26.8214V19.8214H147.656L147.347 26.497L154.339 26.8214ZM200.789 26.8214H207.789V19.8214H200.789V26.8214ZM200.789 36.3846V43.3846H207.789V36.3846H200.789ZM164.039 36.3846V29.3846H157.351L157.046 36.0654L164.039 36.3846ZM162.536 69.3094L155.544 68.9902L154.913 82.8045L166.419 75.1337L162.536 69.3094ZM168.821 66.3038L171.175 72.896L171.239 72.873L171.303 72.8488L168.821 66.3038ZM198.74 73.1347L193.583 77.8686L193.604 77.8913L193.625 77.9139L198.74 73.1347ZM199.527 94.5836C199.527 97.6621 198.938 100.555 197.762 103.321L210.647 108.797C212.568 104.277 213.527 99.5199 213.527 94.5836H199.527ZM197.705 103.46C196.574 106.288 195.013 108.699 193.024 110.758L203.09 120.488C206.383 117.081 208.921 113.117 210.704 108.659L197.705 103.46ZM193.024 110.758C191.088 112.76 188.651 114.438 185.6 115.746L191.114 128.614C195.713 126.643 199.743 123.95 203.09 120.488L193.024 110.758ZM185.676 115.714C182.909 116.861 179.649 117.503 175.788 117.503V131.503C181.217 131.503 186.337 130.596 191.038 128.646L185.676 115.714ZM175.788 117.503C171.337 117.503 167.902 116.932 165.311 116.002L160.581 129.179C165.095 130.799 170.221 131.503 175.788 131.503V117.503ZM165.516 116.079C162.643 114.945 160.514 113.644 158.964 112.28L149.715 122.79C152.719 125.434 156.327 127.503 160.376 129.101L165.516 116.079ZM159.069 112.375C157.464 110.903 156.508 109.53 155.965 108.295L143.15 113.933C144.611 117.252 146.843 120.16 149.609 122.695L159.069 112.375ZM156.004 108.387C155.287 106.691 155.055 105.391 155.055 104.42H141.055C141.055 107.639 141.825 110.802 143.111 113.842L156.004 108.387ZM148.055 111.42H160.624V97.42H148.055V111.42ZM153.624 104.42C153.624 106.44 154.036 108.447 154.625 110.333L167.988 106.157C167.667 105.129 167.624 104.586 167.624 104.42H153.624ZM154.807 110.845C155.726 113.142 157.108 115.177 158.773 116.97L169.032 107.444C168.329 106.687 167.98 106.081 167.806 105.646L154.807 110.845ZM158.953 117.157C160.828 119.032 163.088 120.503 165.538 121.669L171.557 109.029C170.182 108.375 169.345 107.751 168.852 107.257L158.953 117.157ZM165.79 121.783C168.825 123.084 172.198 123.579 175.652 123.579V109.579C173.458 109.579 172.095 109.254 171.305 108.915L165.79 121.783ZM175.652 123.579C183.229 123.579 189.847 120.838 194.903 115.277L184.544 105.859C182.313 108.312 179.549 109.579 175.652 109.579V123.579ZM194.955 115.218C199.902 109.653 202.269 102.566 202.592 94.5939L188.603 94.0268C188.38 99.5346 186.83 103.286 184.491 105.917L194.955 115.218ZM202.598 94.3104C202.598 86.4192 200.369 79.3409 195.143 73.9843L185.123 83.7609C187.183 85.8727 188.598 89.0863 188.598 94.3104H202.598ZM195.205 74.0481C190.461 69.061 184.509 66.2323 177.653 65.7426L176.656 79.707C180.001 79.946 182.701 81.2158 185.061 83.6971L195.205 74.0481ZM177.513 65.734C173.034 65.5043 168.622 66.211 164.809 68.4984L172.012 80.5033C172.754 80.0583 174.171 79.581 176.796 79.7156L177.513 65.734ZM164.809 68.4984C161.733 70.3441 159.103 72.7401 156.936 75.6289L168.136 84.0289C169.248 82.546 170.534 81.39 172.012 80.5033L164.809 68.4984ZM162.536 72.8289H151.88V86.8289H162.536V72.8289ZM158.873 80.1533L161.332 27.1458L147.347 26.497L144.888 79.5045L158.873 80.1533ZM154.339 33.8214H200.789V19.8214H154.339V33.8214ZM193.789 26.8214V36.3846H207.789V26.8214H193.789ZM200.789 29.3846H164.039V43.3846H200.789V29.3846ZM157.046 36.0654L155.544 68.9902L169.529 69.6286L171.032 36.7038L157.046 36.0654ZM166.419 75.1337C167.443 74.4515 168.978 73.6805 171.175 72.896L166.466 59.7116C163.563 60.7487 160.909 61.9814 158.653 63.485L166.419 75.1337ZM171.303 72.8488C172.995 72.207 175.176 71.801 177.974 71.801V57.801C173.85 57.801 169.929 58.3969 166.338 59.7588L171.303 72.8488ZM177.974 71.801C185.1 71.801 190.024 73.9913 193.583 77.8686L203.896 68.4008C197.255 61.1665 188.335 57.801 177.974 57.801V71.801ZM193.625 77.9139C197.423 81.9786 199.527 87.3291 199.527 94.5836H213.527C213.527 84.3511 210.439 75.4023 203.854 68.3555L193.625 77.9139Z" fill="#F02FA3"/>
<path d="M110.578 144.236V201.158H100.125V153.417H43.9093V144.236H110.578Z" fill="#F02FA3"/>
<path d="M110.578 144.236H113.578V141.236H110.578V144.236ZM110.578 201.158V204.158H113.578V201.158H110.578ZM100.125 201.158H97.1255V204.158H100.125V201.158ZM100.125 153.417H103.125V150.417H100.125V153.417ZM43.9093 153.417H40.9093V156.417H43.9093V153.417ZM43.9093 144.236V141.236H40.9093V144.236H43.9093ZM107.578 144.236V201.158H113.578V144.236H107.578ZM110.578 198.158H100.125V204.158H110.578V198.158ZM103.125 201.158V153.417H97.1255V201.158H103.125ZM100.125 150.417H43.9093V156.417H100.125V150.417ZM46.9093 153.417V144.236H40.9093V153.417H46.9093ZM43.9093 147.236H110.578V141.236H43.9093V147.236Z" fill="#F02FA3"/>
<path d="M186.457 157.04H139.146V147.931H209.976V157.04H196.381V193.474H211.064V202.583H138.059V193.474H153.013C153.013 190.937 152.968 188.353 152.877 185.725C152.877 183.006 152.832 180.287 152.741 177.568C152.56 175.03 152.107 172.629 151.382 170.363C150.657 168.097 149.977 166.284 149.343 164.925L157.908 161.254C158.723 162.885 159.63 165.061 160.627 167.78C161.623 170.499 162.258 173.444 162.53 176.616C162.711 179.789 162.802 182.78 162.802 185.589C162.802 188.308 162.802 190.937 162.802 193.474H186.457V157.04Z" fill="#F02FA3"/>
<path d="M186.457 157.04H189.457V154.04H186.457V157.04ZM139.146 157.04H136.146V160.04H139.146V157.04ZM139.146 147.931V144.931H136.146V147.931H139.146ZM209.976 147.931H212.976V144.931H209.976V147.931ZM209.976 157.04V160.04H212.976V157.04H209.976ZM196.381 157.04V154.04H193.381V157.04H196.381ZM196.381 193.474H193.381V196.474H196.381V193.474ZM211.064 193.474H214.064V190.474H211.064V193.474ZM211.064 202.583V205.583H214.064V202.583H211.064ZM138.059 202.583H135.059V205.583H138.059V202.583ZM138.059 193.474V190.474H135.059V193.474H138.059ZM153.013 193.474V196.474H156.013V193.474H153.013ZM152.877 185.725H149.877V185.777L149.879 185.828L152.877 185.725ZM152.741 177.568L155.74 177.468L155.738 177.411L155.734 177.354L152.741 177.568ZM151.382 170.363L148.525 171.277L148.525 171.277L151.382 170.363ZM149.343 164.925L148.161 162.167L145.315 163.387L146.624 166.193L149.343 164.925ZM157.908 161.254L160.591 159.912L159.326 157.382L156.726 158.497L157.908 161.254ZM160.627 167.78L163.443 166.747L163.443 166.747L160.627 167.78ZM162.53 176.616L165.525 176.445L165.522 176.403L165.519 176.36L162.53 176.616ZM162.802 193.474H159.802V196.474H162.802V193.474ZM186.457 193.474V196.474H189.457V193.474H186.457ZM186.457 154.04H139.146V160.04H186.457V154.04ZM142.146 157.04V147.931H136.146V157.04H142.146ZM139.146 150.931H209.976V144.931H139.146V150.931ZM206.976 147.931V157.04H212.976V147.931H206.976ZM209.976 154.04H196.381V160.04H209.976V154.04ZM193.381 157.04V193.474H199.381V157.04H193.381ZM196.381 196.474H211.064V190.474H196.381V196.474ZM208.064 193.474V202.583H214.064V193.474H208.064ZM211.064 199.583H138.059V205.583H211.064V199.583ZM141.059 202.583V193.474H135.059V202.583H141.059ZM138.059 196.474H153.013V190.474H138.059V196.474ZM156.013 193.474C156.013 190.901 155.967 188.283 155.876 185.622L149.879 185.828C149.969 188.424 150.013 190.972 150.013 193.474H156.013ZM155.877 185.725C155.877 182.973 155.831 180.22 155.74 177.468L149.743 177.668C149.833 180.354 149.877 183.039 149.877 185.725H155.877ZM155.734 177.354C155.537 174.595 155.042 171.957 154.239 169.448L148.525 171.277C149.172 173.3 149.584 175.466 149.749 177.782L155.734 177.354ZM154.239 169.448C153.495 167.123 152.771 165.177 152.061 163.656L146.624 166.193C147.183 167.391 147.819 169.071 148.525 171.277L154.239 169.448ZM150.524 167.682L159.089 164.012L156.726 158.497L148.161 162.167L150.524 167.682ZM155.224 162.596C155.969 164.086 156.832 166.145 157.81 168.812L163.443 166.747C162.427 163.976 161.477 161.685 160.591 159.912L155.224 162.596ZM157.81 168.812C158.707 171.258 159.289 173.94 159.541 176.873L165.519 176.36C165.226 172.949 164.54 169.739 163.443 166.747L157.81 168.812ZM159.535 176.788C159.713 179.91 159.802 182.843 159.802 185.589H165.802C165.802 182.716 165.709 179.667 165.525 176.445L159.535 176.788ZM159.802 185.589C159.802 185.594 159.802 185.6 159.802 185.605C159.802 185.61 159.802 185.616 159.802 185.621C159.802 185.626 159.802 185.632 159.802 185.637C159.802 185.642 159.802 185.648 159.802 185.653C159.802 185.658 159.802 185.663 159.802 185.669C159.802 185.674 159.802 185.679 159.802 185.685C159.802 185.69 159.802 185.695 159.802 185.701C159.802 185.706 159.802 185.711 159.802 185.717C159.802 185.722 159.802 185.727 159.802 185.732C159.802 185.738 159.802 185.743 159.802 185.748C159.802 185.754 159.802 185.759 159.802 185.764C159.802 185.77 159.802 185.775 159.802 185.78C159.802 185.785 159.802 185.791 159.802 185.796C159.802 185.801 159.802 185.807 159.802 185.812C159.802 185.817 159.802 185.823 159.802 185.828C159.802 185.833 159.802 185.838 159.802 185.844C159.802 185.849 159.802 185.854 159.802 185.86C159.802 185.865 159.802 185.87 159.802 185.876C159.802 185.881 159.802 185.886 159.802 185.891C159.802 185.897 159.802 185.902 159.802 185.907C159.802 185.913 159.802 185.918 159.802 185.923C159.802 185.929 159.802 185.934 159.802 185.939C159.802 185.944 159.802 185.95 159.802 185.955C159.802 185.96 159.802 185.966 159.802 185.971C159.802 185.976 159.802 185.981 159.802 185.987C159.802 185.992 159.802 185.997 159.802 186.003C159.802 186.008 159.802 186.013 159.802 186.019C159.802 186.024 159.802 186.029 159.802 186.034C159.802 186.04 159.802 186.045 159.802 186.05C159.802 186.056 159.802 186.061 159.802 186.066C159.802 186.071 159.802 186.077 159.802 186.082C159.802 186.087 159.802 186.093 159.802 186.098C159.802 186.103 159.802 186.108 159.802 186.114C159.802 186.119 159.802 186.124 159.802 186.13C159.802 186.135 159.802 186.14 159.802 186.145C159.802 186.151 159.802 186.156 159.802 186.161C159.802 186.167 159.802 186.172 159.802 186.177C159.802 186.182 159.802 186.188 159.802 186.193C159.802 186.198 159.802 186.204 159.802 186.209C159.802 186.214 159.802 186.219 159.802 186.225C159.802 186.23 159.802 186.235 159.802 186.241C159.802 186.246 159.802 186.251 159.802 186.256C159.802 186.262 159.802 186.267 159.802 186.272C159.802 186.278 159.802 186.283 159.802 186.288C159.802 186.293 159.802 186.299 159.802 186.304C159.802 186.309 159.802 186.315 159.802 186.32C159.802 186.325 159.802 186.33 159.802 186.336C159.802 186.341 159.802 186.346 159.802 186.351C159.802 186.357 159.802 186.362 159.802 186.367C159.802 186.373 159.802 186.378 159.802 186.383C159.802 186.388 159.802 186.394 159.802 186.399C159.802 186.404 159.802 186.41 159.802 186.415C159.802 186.42 159.802 186.425 159.802 186.431C159.802 186.436 159.802 186.441 159.802 186.446C159.802 186.452 159.802 186.457 159.802 186.462C159.802 186.468 159.802 186.473 159.802 186.478C159.802 186.483 159.802 186.489 159.802 186.494C159.802 186.499 159.802 186.504 159.802 186.51C159.802 186.515 159.802 186.52 159.802 186.525C159.802 186.531 159.802 186.536 159.802 186.541C159.802 186.547 159.802 186.552 159.802 186.557C159.802 186.562 159.802 186.568 159.802 186.573C159.802 186.578 159.802 186.583 159.802 186.589C159.802 186.594 159.802 186.599 159.802 186.605C159.802 186.61 159.802 186.615 159.802 186.62C159.802 186.626 159.802 186.631 159.802 186.636C159.802 186.641 159.802 186.647 159.802 186.652C159.802 186.657 159.802 186.662 159.802 186.668C159.802 186.673 159.802 186.678 159.802 186.683C159.802 186.689 159.802 186.694 159.802 186.699C159.802 186.705 159.802 186.71 159.802 186.715C159.802 186.72 159.802 186.726 159.802 186.731C159.802 186.736 159.802 186.741 159.802 186.747C159.802 186.752 159.802 186.757 159.802 186.762C159.802 186.768 159.802 186.773 159.802 186.778C159.802 186.783 159.802 186.789 159.802 186.794C159.802 186.799 159.802 186.804 159.802 186.81C159.802 186.815 159.802 186.82 159.802 186.826C159.802 186.831 159.802 186.836 159.802 186.841C159.802 186.847 159.802 186.852 159.802 186.857C159.802 186.862 159.802 186.868 159.802 186.873C159.802 186.878 159.802 186.883 159.802 186.889C159.802 186.894 159.802 186.899 159.802 186.904C159.802 186.91 159.802 186.915 159.802 186.92C159.802 186.925 159.802 186.931 159.802 186.936C159.802 186.941 159.802 186.946 159.802 186.952C159.802 186.957 159.802 186.962 159.802 186.967C159.802 186.973 159.802 186.978 159.802 186.983C159.802 186.988 159.802 186.994 159.802 186.999C159.802 187.004 159.802 187.009 159.802 187.015C159.802 187.02 159.802 187.025 159.802 187.03C159.802 187.036 159.802 187.041 159.802 187.046C159.802 187.051 159.802 187.057 159.802 187.062C159.802 187.067 159.802 187.072 159.802 187.078C159.802 187.083 159.802 187.088 159.802 187.093C159.802 187.099 159.802 187.104 159.802 187.109C159.802 187.114 159.802 187.12 159.802 187.125C159.802 187.13 159.802 187.135 159.802 187.14C159.802 187.146 159.802 187.151 159.802 187.156C159.802 187.161 159.802 187.167 159.802 187.172C159.802 187.177 159.802 187.182 159.802 187.188C159.802 187.193 159.802 187.198 159.802 187.203C159.802 187.209 159.802 187.214 159.802 187.219C159.802 187.224 159.802 187.23 159.802 187.235C159.802 187.24 159.802 187.245 159.802 187.251C159.802 187.256 159.802 187.261 159.802 187.266C159.802 187.271 159.802 187.277 159.802 187.282C159.802 187.287 159.802 187.292 159.802 187.298C159.802 187.303 159.802 187.308 159.802 187.313C159.802 187.319 159.802 187.324 159.802 187.329C159.802 187.334 159.802 187.34 159.802 187.345C159.802 187.35 159.802 187.355 159.802 187.36C159.802 187.366 159.802 187.371 159.802 187.376C159.802 187.381 159.802 187.387 159.802 187.392C159.802 187.397 159.802 187.402 159.802 187.408C159.802 187.413 159.802 187.418 159.802 187.423C159.802 187.428 159.802 187.434 159.802 187.439C159.802 187.444 159.802 187.449 159.802 187.455C159.802 187.46 159.802 187.465 159.802 187.47C159.802 187.476 159.802 187.481 159.802 187.486C159.802 187.491 159.802 187.496 159.802 187.502C159.802 187.507 159.802 187.512 159.802 187.517C159.802 187.523 159.802 187.528 159.802 187.533C159.802 187.538 159.802 187.543 159.802 187.549C159.802 187.554 159.802 187.559 159.802 187.564C159.802 187.57 159.802 187.575 159.802 187.58C159.802 187.585 159.802 187.591 159.802 187.596C159.802 187.601 159.802 187.606 159.802 187.611C159.802 187.617 159.802 187.622 159.802 187.627C159.802 187.632 159.802 187.638 159.802 187.643C159.802 187.648 159.802 187.653 159.802 187.658C159.802 187.664 159.802 187.669 159.802 187.674C159.802 187.679 159.802 187.684 159.802 187.69C159.802 187.695 159.802 187.7 159.802 187.705C159.802 187.711 159.802 187.716 159.802 187.721C159.802 187.726 159.802 187.731 159.802 187.737C159.802 187.742 159.802 187.747 159.802 187.752C159.802 187.758 159.802 187.763 159.802 187.768C159.802 187.773 159.802 187.778 159.802 187.784C159.802 187.789 159.802 187.794 159.802 187.799C159.802 187.804 159.802 187.81 159.802 187.815C159.802 187.82 159.802 187.825 159.802 187.831C159.802 187.836 159.802 187.841 159.802 187.846C159.802 187.851 159.802 187.857 159.802 187.862C159.802 187.867 159.802 187.872 159.802 187.877C159.802 187.883 159.802 187.888 159.802 187.893C159.802 187.898 159.802 187.903 159.802 187.909C159.802 187.914 159.802 187.919 159.802 187.924C159.802 187.93 159.802 187.935 159.802 187.94C159.802 187.945 159.802 187.95 159.802 187.956C159.802 187.961 159.802 187.966 159.802 187.971C159.802 187.976 159.802 187.982 159.802 187.987C159.802 187.992 159.802 187.997 159.802 188.002C159.802 188.008 159.802 188.013 159.802 188.018C159.802 188.023 159.802 188.028 159.802 188.034C159.802 188.039 159.802 188.044 159.802 188.049C159.802 188.054 159.802 188.06 159.802 188.065C159.802 188.07 159.802 188.075 159.802 188.08C159.802 188.086 159.802 188.091 159.802 188.096C159.802 188.101 159.802 188.106 159.802 188.112C159.802 188.117 159.802 188.122 159.802 188.127C159.802 188.132 159.802 188.138 159.802 188.143C159.802 188.148 159.802 188.153 159.802 188.158C159.802 188.164 159.802 188.169 159.802 188.174C159.802 188.179 159.802 188.184 159.802 188.19C159.802 188.195 159.802 188.2 159.802 188.205C159.802 188.21 159.802 188.216 159.802 188.221C159.802 188.226 159.802 188.231 159.802 188.236C159.802 188.242 159.802 188.247 159.802 188.252C159.802 188.257 159.802 188.262 159.802 188.268C159.802 188.273 159.802 188.278 159.802 188.283C159.802 188.288 159.802 188.294 159.802 188.299C159.802 188.304 159.802 188.309 159.802 188.314C159.802 188.319 159.802 188.325 159.802 188.33C159.802 188.335 159.802 188.34 159.802 188.345C159.802 188.351 159.802 188.356 159.802 188.361C159.802 188.366 159.802 188.371 159.802 188.377C159.802 188.382 159.802 188.387 159.802 188.392C159.802 188.397 159.802 188.402 159.802 188.408C159.802 188.413 159.802 188.418 159.802 188.423C159.802 188.428 159.802 188.434 159.802 188.439C159.802 188.444 159.802 188.449 159.802 188.454C159.802 188.46 159.802 188.465 159.802 188.47C159.802 188.475 159.802 188.48 159.802 188.485C159.802 188.491 159.802 188.496 159.802 188.501C159.802 188.506 159.802 188.511 159.802 188.517C159.802 188.522 159.802 188.527 159.802 188.532C159.802 188.537 159.802 188.542 159.802 188.548C159.802 188.553 159.802 188.558 159.802 188.563C159.802 188.568 159.802 188.574 159.802 188.579C159.802 188.584 159.802 188.589 159.802 188.594C159.802 188.599 159.802 188.605 159.802 188.61C159.802 188.615 159.802 188.62 159.802 188.625C159.802 188.63 159.802 188.636 159.802 188.641C159.802 188.646 159.802 188.651 159.802 188.656C159.802 188.662 159.802 188.667 159.802 188.672C159.802 188.677 159.802 188.682 159.802 188.687C159.802 188.693 159.802 188.698 159.802 188.703C159.802 188.708 159.802 188.713 159.802 188.718C159.802 188.724 159.802 188.729 159.802 188.734C159.802 188.739 159.802 188.744 159.802 188.749C159.802 188.755 159.802 188.76 159.802 188.765C159.802 188.77 159.802 188.775 159.802 188.781C159.802 188.786 159.802 188.791 159.802 188.796C159.802 188.801 159.802 188.806 159.802 188.812C159.802 188.817 159.802 188.822 159.802 188.827C159.802 188.832 159.802 188.837 159.802 188.843C159.802 188.848 159.802 188.853 159.802 188.858C159.802 188.863 159.802 188.868 159.802 188.874C159.802 188.879 159.802 188.884 159.802 188.889C159.802 188.894 159.802 188.899 159.802 188.905C159.802 188.91 159.802 188.915 159.802 188.92C159.802 188.925 159.802 188.93 159.802 188.936C159.802 188.941 159.802 188.946 159.802 188.951C159.802 188.956 159.802 188.961 159.802 188.967C159.802 188.972 159.802 188.977 159.802 188.982C159.802 188.987 159.802 188.992 159.802 188.997C159.802 189.003 159.802 189.008 159.802 189.013C159.802 189.018 159.802 189.023 159.802 189.028C159.802 189.034 159.802 189.039 159.802 189.044C159.802 189.049 159.802 189.054 159.802 189.059C159.802 189.065 159.802 189.07 159.802 189.075C159.802 189.08 159.802 189.085 159.802 189.09C159.802 189.095 159.802 189.101 159.802 189.106C159.802 189.111 159.802 189.116 159.802 189.121C159.802 189.126 159.802 189.132 159.802 189.137C159.802 189.142 159.802 189.147 159.802 189.152C159.802 189.157 159.802 189.162 159.802 189.168C159.802 189.173 159.802 189.178 159.802 189.183C159.802 189.188 159.802 189.193 159.802 189.199C159.802 189.204 159.802 189.209 159.802 189.214C159.802 189.219 159.802 189.224 159.802 189.229C159.802 189.235 159.802 189.24 159.802 189.245C159.802 189.25 159.802 189.255 159.802 189.26C159.802 189.266 159.802 189.271 159.802 189.276C159.802 189.281 159.802 189.286 159.802 189.291C159.802 189.296 159.802 189.302 159.802 189.307C159.802 189.312 159.802 189.317 159.802 189.322C159.802 189.327 159.802 189.332 159.802 189.338C159.802 189.343 159.802 189.348 159.802 189.353C159.802 189.358 159.802 189.363 159.802 189.368C159.802 189.374 159.802 189.379 159.802 189.384C159.802 189.389 159.802 189.394 159.802 189.399C159.802 189.404 159.802 189.41 159.802 189.415C159.802 189.42 159.802 189.425 159.802 189.43C159.802 189.435 159.802 189.44 159.802 189.446C159.802 189.451 159.802 189.456 159.802 189.461C159.802 189.466 159.802 189.471 159.802 189.476C159.802 189.482 159.802 189.487 159.802 189.492C159.802 189.497 159.802 189.502 159.802 189.507C159.802 189.512 159.802 189.518 159.802 189.523C159.802 189.528 159.802 189.533 159.802 189.538C159.802 189.543 159.802 189.548 159.802 189.553C159.802 189.559 159.802 189.564 159.802 189.569C159.802 189.574 159.802 189.579 159.802 189.584C159.802 189.589 159.802 189.595 159.802 189.6C159.802 189.605 159.802 189.61 159.802 189.615C159.802 189.62 159.802 189.625 159.802 189.63C159.802 189.636 159.802 189.641 159.802 189.646C159.802 189.651 159.802 189.656 159.802 189.661C159.802 189.666 159.802 189.672 159.802 189.677C159.802 189.682 159.802 189.687 159.802 189.692C159.802 189.697 159.802 189.702 159.802 189.707C159.802 189.713 159.802 189.718 159.802 189.723C159.802 189.728 159.802 189.733 159.802 189.738C159.802 189.743 159.802 189.748 159.802 189.754C159.802 189.759 159.802 189.764 159.802 189.769C159.802 189.774 159.802 189.779 159.802 189.784C159.802 189.789 159.802 189.795 159.802 189.8C159.802 189.805 159.802 189.81 159.802 189.815C159.802 189.82 159.802 189.825 159.802 189.83C159.802 189.836 159.802 189.841 159.802 189.846C159.802 189.851 159.802 189.856 159.802 189.861C159.802 189.866 159.802 189.871 159.802 189.877C159.802 189.882 159.802 189.887 159.802 189.892C159.802 189.897 159.802 189.902 159.802 189.907C159.802 189.912 159.802 189.918 159.802 189.923C159.802 189.928 159.802 189.933 159.802 189.938C159.802 189.943 159.802 189.948 159.802 189.953C159.802 189.958 159.802 189.964 159.802 189.969C159.802 189.974 159.802 189.979 159.802 189.984C159.802 189.989 159.802 189.994 159.802 189.999C159.802 190.004 159.802 190.01 159.802 190.015C159.802 190.02 159.802 190.025 159.802 190.03C159.802 190.035 159.802 190.04 159.802 190.045C159.802 190.051 159.802 190.056 159.802 190.061C159.802 190.066 159.802 190.071 159.802 190.076C159.802 190.081 159.802 190.086 159.802 190.091C159.802 190.097 159.802 190.102 159.802 190.107C159.802 190.112 159.802 190.117 159.802 190.122C159.802 190.127 159.802 190.132 159.802 190.137C159.802 190.143 159.802 190.148 159.802 190.153C159.802 190.158 159.802 190.163 159.802 190.168C159.802 190.173 159.802 190.178 159.802 190.183C159.802 190.189 159.802 190.194 159.802 190.199C159.802 190.204 159.802 190.209 159.802 190.214C159.802 190.219 159.802 190.224 159.802 190.229C159.802 190.234 159.802 190.24 159.802 190.245C159.802 190.25 159.802 190.255 159.802 190.26C159.802 190.265 159.802 190.27 159.802 190.275C159.802 190.28 159.802 190.285 159.802 190.291C159.802 190.296 159.802 190.301 159.802 190.306C159.802 190.311 159.802 190.316 159.802 190.321C159.802 190.326 159.802 190.331 159.802 190.337C159.802 190.342 159.802 190.347 159.802 190.352C159.802 190.357 159.802 190.362 159.802 190.367C159.802 190.372 159.802 190.377 159.802 190.382C159.802 190.387 159.802 190.393 159.802 190.398C159.802 190.403 159.802 190.408 159.802 190.413C159.802 190.418 159.802 190.423 159.802 190.428C159.802 190.433 159.802 190.438 159.802 190.444C159.802 190.449 159.802 190.454 159.802 190.459C159.802 190.464 159.802 190.469 159.802 190.474C159.802 190.479 159.802 190.484 159.802 190.489C159.802 190.495 159.802 190.5 159.802 190.505C159.802 190.51 159.802 190.515 159.802 190.52C159.802 190.525 159.802 190.53 159.802 190.535C159.802 190.54 159.802 190.545 159.802 190.551C159.802 190.556 159.802 190.561 159.802 190.566C159.802 190.571 159.802 190.576 159.802 190.581C159.802 190.586 159.802 190.591 159.802 190.596C159.802 190.601 159.802 190.607 159.802 190.612C159.802 190.617 159.802 190.622 159.802 190.627C159.802 190.632 159.802 190.637 159.802 190.642C159.802 190.647 159.802 190.652 159.802 190.657C159.802 190.662 159.802 190.668 159.802 190.673C159.802 190.678 159.802 190.683 159.802 190.688C159.802 190.693 159.802 190.698 159.802 190.703C159.802 190.708 159.802 190.713 159.802 190.718C159.802 190.723 159.802 190.729 159.802 190.734C159.802 190.739 159.802 190.744 159.802 190.749C159.802 190.754 159.802 190.759 159.802 190.764C159.802 190.769 159.802 190.774 159.802 190.779C159.802 190.784 159.802 190.79 159.802 190.795C159.802 190.8 159.802 190.805 159.802 190.81C159.802 190.815 159.802 190.82 159.802 190.825C159.802 190.83 159.802 190.835 159.802 190.84C159.802 190.845 159.802 190.85 159.802 190.856C159.802 190.861 159.802 190.866 159.802 190.871C159.802 190.876 159.802 190.881 159.802 190.886C159.802 190.891 159.802 190.896 159.802 190.901C159.802 190.906 159.802 190.911 159.802 190.916C159.802 190.922 159.802 190.927 159.802 190.932C159.802 190.937 159.802 190.942 159.802 190.947C159.802 190.952 159.802 190.957 159.802 190.962C159.802 190.967 159.802 190.972 159.802 190.977C159.802 190.982 159.802 190.987 159.802 190.993C159.802 190.998 159.802 191.003 159.802 191.008C159.802 191.013 159.802 191.018 159.802 191.023C159.802 191.028 159.802 191.033 159.802 191.038C159.802 191.043 159.802 191.048 159.802 191.053C159.802 191.058 159.802 191.063 159.802 191.069C159.802 191.074 159.802 191.079 159.802 191.084C159.802 191.089 159.802 191.094 159.802 191.099C159.802 191.104 159.802 191.109 159.802 191.114C159.802 191.119 159.802 191.124 159.802 191.129C159.802 191.134 159.802 191.139 159.802 191.145C159.802 191.15 159.802 191.155 159.802 191.16C159.802 191.165 159.802 191.17 159.802 191.175C159.802 191.18 159.802 191.185 159.802 191.19C159.802 191.195 159.802 191.2 159.802 191.205C159.802 191.21 159.802 191.215 159.802 191.22C159.802 191.226 159.802 191.231 159.802 191.236C159.802 191.241 159.802 191.246 159.802 191.251C159.802 191.256 159.802 191.261 159.802 191.266C159.802 191.271 159.802 191.276 159.802 191.281C159.802 191.286 159.802 191.291 159.802 191.296C159.802 191.301 159.802 191.306 159.802 191.312C159.802 191.317 159.802 191.322 159.802 191.327C159.802 191.332 159.802 191.337 159.802 191.342C159.802 191.347 159.802 191.352 159.802 191.357C159.802 191.362 159.802 191.367 159.802 191.372C159.802 191.377 159.802 191.382 159.802 191.387C159.802 191.392 159.802 191.397 159.802 191.402C159.802 191.408 159.802 191.413 159.802 191.418C159.802 191.423 159.802 191.428 159.802 191.433C159.802 191.438 159.802 191.443 159.802 191.448C159.802 191.453 159.802 191.458 159.802 191.463C159.802 191.468 159.802 191.473 159.802 191.478C159.802 191.483 159.802 191.488 159.802 191.493C159.802 191.498 159.802 191.503 159.802 191.509C159.802 191.514 159.802 191.519 159.802 191.524C159.802 191.529 159.802 191.534 159.802 191.539C159.802 191.544 159.802 191.549 159.802 191.554C159.802 191.559 159.802 191.564 159.802 191.569C159.802 191.574 159.802 191.579 159.802 191.584C159.802 191.589 159.802 191.594 159.802 191.599C159.802 191.604 159.802 191.609 159.802 191.614C159.802 191.62 159.802 191.625 159.802 191.63C159.802 191.635 159.802 191.64 159.802 191.645C159.802 191.65 159.802 191.655 159.802 191.66C159.802 191.665 159.802 191.67 159.802 191.675C159.802 191.68 159.802 191.685 159.802 191.69C159.802 191.695 159.802 191.7 159.802 191.705C159.802 191.71 159.802 191.715 159.802 191.72C159.802 191.725 159.802 191.73 159.802 191.735C159.802 191.74 159.802 191.745 159.802 191.751C159.802 191.756 159.802 191.761 159.802 191.766C159.802 191.771 159.802 191.776 159.802 191.781C159.802 191.786 159.802 191.791 159.802 191.796C159.802 191.801 159.802 191.806 159.802 191.811C159.802 191.816 159.802 191.821 159.802 191.826C159.802 191.831 159.802 191.836 159.802 191.841C159.802 191.846 159.802 191.851 159.802 191.856C159.802 191.861 159.802 191.866 159.802 191.871C159.802 191.876 159.802 191.881 159.802 191.886C159.802 191.891 159.802 191.896 159.802 191.902C159.802 191.907 159.802 191.912 159.802 191.917C159.802 191.922 159.802 191.927 159.802 191.932C159.802 191.937 159.802 191.942 159.802 191.947C159.802 191.952 159.802 191.957 159.802 191.962C159.802 191.967 159.802 191.972 159.802 191.977C159.802 191.982 159.802 191.987 159.802 191.992C159.802 191.997 159.802 192.002 159.802 192.007C159.802 192.012 159.802 192.017 159.802 192.022C159.802 192.027 159.802 192.032 159.802 192.037C159.802 192.042 159.802 192.047 159.802 192.052C159.802 192.057 159.802 192.062 159.802 192.067C159.802 192.072 159.802 192.077 159.802 192.082C159.802 192.087 159.802 192.092 159.802 192.097C159.802 192.102 159.802 192.108 159.802 192.113C159.802 192.118 159.802 192.123 159.802 192.128C159.802 192.133 159.802 192.138 159.802 192.143C159.802 192.148 159.802 192.153 159.802 192.158C159.802 192.163 159.802 192.168 159.802 192.173C159.802 192.178 159.802 192.183 159.802 192.188C159.802 192.193 159.802 192.198 159.802 192.203C159.802 192.208 159.802 192.213 159.802 192.218C159.802 192.223 159.802 192.228 159.802 192.233C159.802 192.238 159.802 192.243 159.802 192.248C159.802 192.253 159.802 192.258 159.802 192.263C159.802 192.268 159.802 192.273 159.802 192.278C159.802 192.283 159.802 192.288 159.802 192.293C159.802 192.298 159.802 192.303 159.802 192.308C159.802 192.313 159.802 192.318 159.802 192.323C159.802 192.328 159.802 192.333 159.802 192.338C159.802 192.343 159.802 192.348 159.802 192.353C159.802 192.358 159.802 192.363 159.802 192.368C159.802 192.373 159.802 192.378 159.802 192.383C159.802 192.388 159.802 192.393 159.802 192.398C159.802 192.403 159.802 192.408 159.802 192.413C159.802 192.418 159.802 192.423 159.802 192.428C159.802 192.433 159.802 192.438 159.802 192.443C159.802 192.448 159.802 192.453 159.802 192.458C159.802 192.463 159.802 192.468 159.802 192.473C159.802 192.478 159.802 192.483 159.802 192.488C159.802 192.493 159.802 192.498 159.802 192.503C159.802 192.508 159.802 192.513 159.802 192.518C159.802 192.523 159.802 192.528 159.802 192.533C159.802 192.538 159.802 192.543 159.802 192.548C159.802 192.553 159.802 192.558 159.802 192.563C159.802 192.568 159.802 192.573 159.802 192.578C159.802 192.583 159.802 192.588 159.802 192.593C159.802 192.598 159.802 192.603 159.802 192.608C159.802 192.613 159.802 192.618 159.802 192.623C159.802 192.628 159.802 192.633 159.802 192.638C159.802 192.643 159.802 192.648 159.802 192.653C159.802 192.658 159.802 192.663 159.802 192.668C159.802 192.673 159.802 192.678 159.802 192.683C159.802 192.688 159.802 192.693 159.802 192.698C159.802 192.703 159.802 192.708 159.802 192.713C159.802 192.718 159.802 192.723 159.802 192.728C159.802 192.733 159.802 192.738 159.802 192.743C159.802 192.748 159.802 192.753 159.802 192.758C159.802 192.763 159.802 192.768 159.802 192.773C159.802 192.778 159.802 192.783 159.802 192.788C159.802 192.793 159.802 192.798 159.802 192.803C159.802 192.808 159.802 192.813 159.802 192.818C159.802 192.823 159.802 192.828 159.802 192.833C159.802 192.838 159.802 192.843 159.802 192.848C159.802 192.853 159.802 192.858 159.802 192.863C159.802 192.868 159.802 192.873 159.802 192.878C159.802 192.883 159.802 192.888 159.802 192.893C159.802 192.898 159.802 192.903 159.802 192.908C159.802 192.913 159.802 192.918 159.802 192.923C159.802 192.928 159.802 192.933 159.802 192.938C159.802 192.943 159.802 192.948 159.802 192.953C159.802 192.958 159.802 192.963 159.802 192.967C159.802 192.972 159.802 192.977 159.802 192.982C159.802 192.987 159.802 192.992 159.802 192.997C159.802 193.002 159.802 193.007 159.802 193.012C159.802 193.017 159.802 193.022 159.802 193.027C159.802 193.032 159.802 193.037 159.802 193.042C159.802 193.047 159.802 193.052 159.802 193.057C159.802 193.062 159.802 193.067 159.802 193.072C159.802 193.077 159.802 193.082 159.802 193.087C159.802 193.092 159.802 193.097 159.802 193.102C159.802 193.107 159.802 193.112 159.802 193.117C159.802 193.122 159.802 193.127 159.802 193.132C159.802 193.137 159.802 193.142 159.802 193.147C159.802 193.152 159.802 193.157 159.802 193.162C159.802 193.166 159.802 193.171 159.802 193.176C159.802 193.181 159.802 193.186 159.802 193.191C159.802 193.196 159.802 193.201 159.802 193.206C159.802 193.211 159.802 193.216 159.802 193.221C159.802 193.226 159.802 193.231 159.802 193.236C159.802 193.241 159.802 193.246 159.802 193.251C159.802 193.256 159.802 193.261 159.802 193.266C159.802 193.271 159.802 193.276 159.802 193.281C159.802 193.286 159.802 193.291 159.802 193.296C159.802 193.301 159.802 193.306 159.802 193.311C159.802 193.316 159.802 193.32 159.802 193.325C159.802 193.33 159.802 193.335 159.802 193.34C159.802 193.345 159.802 193.35 159.802 193.355C159.802 193.36 159.802 193.365 159.802 193.37C159.802 193.375 159.802 193.38 159.802 193.385C159.802 193.39 159.802 193.395 159.802 193.4C159.802 193.405 159.802 193.41 159.802 193.415C159.802 193.42 159.802 193.425 159.802 193.43C159.802 193.435 159.802 193.44 159.802 193.445C159.802 193.449 159.802 193.454 159.802 193.459C159.802 193.464 159.802 193.469 159.802 193.474H165.802C165.802 193.469 165.802 193.464 165.802 193.459C165.802 193.454 165.802 193.449 165.802 193.445C165.802 193.44 165.802 193.435 165.802 193.43C165.802 193.425 165.802 193.42 165.802 193.415C165.802 193.41 165.802 193.405 165.802 193.4C165.802 193.395 165.802 193.39 165.802 193.385C165.802 193.38 165.802 193.375 165.802 193.37C165.802 193.365 165.802 193.36 165.802 193.355C165.802 193.35 165.802 193.345 165.802 193.34C165.802 193.335 165.802 193.33 165.802 193.325C165.802 193.32 165.802 193.316 165.802 193.311C165.802 193.306 165.802 193.301 165.802 193.296C165.802 193.291 165.802 193.286 165.802 193.281C165.802 193.276 165.802 193.271 165.802 193.266C165.802 193.261 165.802 193.256 165.802 193.251C165.802 193.246 165.802 193.241 165.802 193.236C165.802 193.231 165.802 193.226 165.802 193.221C165.802 193.216 165.802 193.211 165.802 193.206C165.802 193.201 165.802 193.196 165.802 193.191C165.802 193.186 165.802 193.181 165.802 193.176C165.802 193.171 165.802 193.166 165.802 193.162C165.802 193.157 165.802 193.152 165.802 193.147C165.802 193.142 165.802 193.137 165.802 193.132C165.802 193.127 165.802 193.122 165.802 193.117C165.802 193.112 165.802 193.107 165.802 193.102C165.802 193.097 165.802 193.092 165.802 193.087C165.802 193.082 165.802 193.077 165.802 193.072C165.802 193.067 165.802 193.062 165.802 193.057C165.802 193.052 165.802 193.047 165.802 193.042C165.802 193.037 165.802 193.032 165.802 193.027C165.802 193.022 165.802 193.017 165.802 193.012C165.802 193.007 165.802 193.002 165.802 192.997C165.802 192.992 165.802 192.987 165.802 192.982C165.802 192.977 165.802 192.972 165.802 192.967C165.802 192.963 165.802 192.958 165.802 192.953C165.802 192.948 165.802 192.943 165.802 192.938C165.802 192.933 165.802 192.928 165.802 192.923C165.802 192.918 165.802 192.913 165.802 192.908C165.802 192.903 165.802 192.898 165.802 192.893C165.802 192.888 165.802 192.883 165.802 192.878C165.802 192.873 165.802 192.868 165.802 192.863C165.802 192.858 165.802 192.853 165.802 192.848C165.802 192.843 165.802 192.838 165.802 192.833C165.802 192.828 165.802 192.823 165.802 192.818C165.802 192.813 165.802 192.808 165.802 192.803C165.802 192.798 165.802 192.793 165.802 192.788C165.802 192.783 165.802 192.778 165.802 192.773C165.802 192.768 165.802 192.763 165.802 192.758C165.802 192.753 165.802 192.748 165.802 192.743C165.802 192.738 165.802 192.733 165.802 192.728C165.802 192.723 165.802 192.718 165.802 192.713C165.802 192.708 165.802 192.703 165.802 192.698C165.802 192.693 165.802 192.688 165.802 192.683C165.802 192.678 165.802 192.673 165.802 192.668C165.802 192.663 165.802 192.658 165.802 192.653C165.802 192.648 165.802 192.643 165.802 192.638C165.802 192.633 165.802 192.628 165.802 192.623C165.802 192.618 165.802 192.613 165.802 192.608C165.802 192.603 165.802 192.598 165.802 192.593C165.802 192.588 165.802 192.583 165.802 192.578C165.802 192.573 165.802 192.568 165.802 192.563C165.802 192.558 165.802 192.553 165.802 192.548C165.802 192.543 165.802 192.538 165.802 192.533C165.802 192.528 165.802 192.523 165.802 192.518C165.802 192.513 165.802 192.508 165.802 192.503C165.802 192.498 165.802 192.493 165.802 192.488C165.802 192.483 165.802 192.478 165.802 192.473C165.802 192.468 165.802 192.463 165.802 192.458C165.802 192.453 165.802 192.448 165.802 192.443C165.802 192.438 165.802 192.433 165.802 192.428C165.802 192.423 165.802 192.418 165.802 192.413C165.802 192.408 165.802 192.403 165.802 192.398C165.802 192.393 165.802 192.388 165.802 192.383C165.802 192.378 165.802 192.373 165.802 192.368C165.802 192.363 165.802 192.358 165.802 192.353C165.802 192.348 165.802 192.343 165.802 192.338C165.802 192.333 165.802 192.328 165.802 192.323C165.802 192.318 165.802 192.313 165.802 192.308C165.802 192.303 165.802 192.298 165.802 192.293C165.802 192.288 165.802 192.283 165.802 192.278C165.802 192.273 165.802 192.268 165.802 192.263C165.802 192.258 165.802 192.253 165.802 192.248C165.802 192.243 165.802 192.238 165.802 192.233C165.802 192.228 165.802 192.223 165.802 192.218C165.802 192.213 165.802 192.208 165.802 192.203C165.802 192.198 165.802 192.193 165.802 192.188C165.802 192.183 165.802 192.178 165.802 192.173C165.802 192.168 165.802 192.163 165.802 192.158C165.802 192.153 165.802 192.148 165.802 192.143C165.802 192.138 165.802 192.133 165.802 192.128C165.802 192.123 165.802 192.118 165.802 192.113C165.802 192.108 165.802 192.102 165.802 192.097C165.802 192.092 165.802 192.087 165.802 192.082C165.802 192.077 165.802 192.072 165.802 192.067C165.802 192.062 165.802 192.057 165.802 192.052C165.802 192.047 165.802 192.042 165.802 192.037C165.802 192.032 165.802 192.027 165.802 192.022C165.802 192.017 165.802 192.012 165.802 192.007C165.802 192.002 165.802 191.997 165.802 191.992C165.802 191.987 165.802 191.982 165.802 191.977C165.802 191.972 165.802 191.967 165.802 191.962C165.802 191.957 165.802 191.952 165.802 191.947C165.802 191.942 165.802 191.937 165.802 191.932C165.802 191.927 165.802 191.922 165.802 191.917C165.802 191.912 165.802 191.907 165.802 191.902C165.802 191.896 165.802 191.891 165.802 191.886C165.802 191.881 165.802 191.876 165.802 191.871C165.802 191.866 165.802 191.861 165.802 191.856C165.802 191.851 165.802 191.846 165.802 191.841C165.802 191.836 165.802 191.831 165.802 191.826C165.802 191.821 165.802 191.816 165.802 191.811C165.802 191.806 165.802 191.801 165.802 191.796C165.802 191.791 165.802 191.786 165.802 191.781C165.802 191.776 165.802 191.771 165.802 191.766C165.802 191.761 165.802 191.756 165.802 191.751C165.802 191.745 165.802 191.74 165.802 191.735C165.802 191.73 165.802 191.725 165.802 191.72C165.802 191.715 165.802 191.71 165.802 191.705C165.802 191.7 165.802 191.695 165.802 191.69C165.802 191.685 165.802 191.68 165.802 191.675C165.802 191.67 165.802 191.665 165.802 191.66C165.802 191.655 165.802 191.65 165.802 191.645C165.802 191.64 165.802 191.635 165.802 191.63C165.802 191.625 165.802 191.62 165.802 191.614C165.802 191.609 165.802 191.604 165.802 191.599C165.802 191.594 165.802 191.589 165.802 191.584C165.802 191.579 165.802 191.574 165.802 191.569C165.802 191.564 165.802 191.559 165.802 191.554C165.802 191.549 165.802 191.544 165.802 191.539C165.802 191.534 165.802 191.529 165.802 191.524C165.802 191.519 165.802 191.514 165.802 191.509C165.802 191.503 165.802 191.498 165.802 191.493C165.802 191.488 165.802 191.483 165.802 191.478C165.802 191.473 165.802 191.468 165.802 191.463C165.802 191.458 165.802 191.453 165.802 191.448C165.802 191.443 165.802 191.438 165.802 191.433C165.802 191.428 165.802 191.423 165.802 191.418C165.802 191.413 165.802 191.408 165.802 191.402C165.802 191.397 165.802 191.392 165.802 191.387C165.802 191.382 165.802 191.377 165.802 191.372C165.802 191.367 165.802 191.362 165.802 191.357C165.802 191.352 165.802 191.347 165.802 191.342C165.802 191.337 165.802 191.332 165.802 191.327C165.802 191.322 165.802 191.317 165.802 191.312C165.802 191.306 165.802 191.301 165.802 191.296C165.802 191.291 165.802 191.286 165.802 191.281C165.802 191.276 165.802 191.271 165.802 191.266C165.802 191.261 165.802 191.256 165.802 191.251C165.802 191.246 165.802 191.241 165.802 191.236C165.802 191.231 165.802 191.226 165.802 191.22C165.802 191.215 165.802 191.21 165.802 191.205C165.802 191.2 165.802 191.195 165.802 191.19C165.802 191.185 165.802 191.18 165.802 191.175C165.802 191.17 165.802 191.165 165.802 191.16C165.802 191.155 165.802 191.15 165.802 191.145C165.802 191.139 165.802 191.134 165.802 191.129C165.802 191.124 165.802 191.119 165.802 191.114C165.802 191.109 165.802 191.104 165.802 191.099C165.802 191.094 165.802 191.089 165.802 191.084C165.802 191.079 165.802 191.074 165.802 191.069C165.802 191.063 165.802 191.058 165.802 191.053C165.802 191.048 165.802 191.043 165.802 191.038C165.802 191.033 165.802 191.028 165.802 191.023C165.802 191.018 165.802 191.013 165.802 191.008C165.802 191.003 165.802 190.998 165.802 190.993C165.802 190.987 165.802 190.982 165.802 190.977C165.802 190.972 165.802 190.967 165.802 190.962C165.802 190.957 165.802 190.952 165.802 190.947C165.802 190.942 165.802 190.937 165.802 190.932C165.802 190.927 165.802 190.922 165.802 190.916C165.802 190.911 165.802 190.906 165.802 190.901C165.802 190.896 165.802 190.891 165.802 190.886C165.802 190.881 165.802 190.876 165.802 190.871C165.802 190.866 165.802 190.861 165.802 190.856C165.802 190.85 165.802 190.845 165.802 190.84C165.802 190.835 165.802 190.83 165.802 190.825C165.802 190.82 165.802 190.815 165.802 190.81C165.802 190.805 165.802 190.8 165.802 190.795C165.802 190.79 165.802 190.784 165.802 190.779C165.802 190.774 165.802 190.769 165.802 190.764C165.802 190.759 165.802 190.754 165.802 190.749C165.802 190.744 165.802 190.739 165.802 190.734C165.802 190.729 165.802 190.723 165.802 190.718C165.802 190.713 165.802 190.708 165.802 190.703C165.802 190.698 165.802 190.693 165.802 190.688C165.802 190.683 165.802 190.678 165.802 190.673C165.802 190.668 165.802 190.662 165.802 190.657C165.802 190.652 165.802 190.647 165.802 190.642C165.802 190.637 165.802 190.632 165.802 190.627C165.802 190.622 165.802 190.617 165.802 190.612C165.802 190.607 165.802 190.601 165.802 190.596C165.802 190.591 165.802 190.586 165.802 190.581C165.802 190.576 165.802 190.571 165.802 190.566C165.802 190.561 165.802 190.556 165.802 190.551C165.802 190.545 165.802 190.54 165.802 190.535C165.802 190.53 165.802 190.525 165.802 190.52C165.802 190.515 165.802 190.51 165.802 190.505C165.802 190.5 165.802 190.495 165.802 190.489C165.802 190.484 165.802 190.479 165.802 190.474C165.802 190.469 165.802 190.464 165.802 190.459C165.802 190.454 165.802 190.449 165.802 190.444C165.802 190.438 165.802 190.433 165.802 190.428C165.802 190.423 165.802 190.418 165.802 190.413C165.802 190.408 165.802 190.403 165.802 190.398C165.802 190.393 165.802 190.387 165.802 190.382C165.802 190.377 165.802 190.372 165.802 190.367C165.802 190.362 165.802 190.357 165.802 190.352C165.802 190.347 165.802 190.342 165.802 190.337C165.802 190.331 165.802 190.326 165.802 190.321C165.802 190.316 165.802 190.311 165.802 190.306C165.802 190.301 165.802 190.296 165.802 190.291C165.802 190.285 165.802 190.28 165.802 190.275C165.802 190.27 165.802 190.265 165.802 190.26C165.802 190.255 165.802 190.25 165.802 190.245C165.802 190.24 165.802 190.234 165.802 190.229C165.802 190.224 165.802 190.219 165.802 190.214C165.802 190.209 165.802 190.204 165.802 190.199C165.802 190.194 165.802 190.189 165.802 190.183C165.802 190.178 165.802 190.173 165.802 190.168C165.802 190.163 165.802 190.158 165.802 190.153C165.802 190.148 165.802 190.143 165.802 190.137C165.802 190.132 165.802 190.127 165.802 190.122C165.802 190.117 165.802 190.112 165.802 190.107C165.802 190.102 165.802 190.097 165.802 190.091C165.802 190.086 165.802 190.081 165.802 190.076C165.802 190.071 165.802 190.066 165.802 190.061C165.802 190.056 165.802 190.051 165.802 190.045C165.802 190.04 165.802 190.035 165.802 190.03C165.802 190.025 165.802 190.02 165.802 190.015C165.802 190.01 165.802 190.004 165.802 189.999C165.802 189.994 165.802 189.989 165.802 189.984C165.802 189.979 165.802 189.974 165.802 189.969C165.802 189.964 165.802 189.958 165.802 189.953C165.802 189.948 165.802 189.943 165.802 189.938C165.802 189.933 165.802 189.928 165.802 189.923C165.802 189.918 165.802 189.912 165.802 189.907C165.802 189.902 165.802 189.897 165.802 189.892C165.802 189.887 165.802 189.882 165.802 189.877C165.802 189.871 165.802 189.866 165.802 189.861C165.802 189.856 165.802 189.851 165.802 189.846C165.802 189.841 165.802 189.836 165.802 189.83C165.802 189.825 165.802 189.82 165.802 189.815C165.802 189.81 165.802 189.805 165.802 189.8C165.802 189.795 165.802 189.789 165.802 189.784C165.802 189.779 165.802 189.774 165.802 189.769C165.802 189.764 165.802 189.759 165.802 189.754C165.802 189.748 165.802 189.743 165.802 189.738C165.802 189.733 165.802 189.728 165.802 189.723C165.802 189.718 165.802 189.713 165.802 189.707C165.802 189.702 165.802 189.697 165.802 189.692C165.802 189.687 165.802 189.682 165.802 189.677C165.802 189.672 165.802 189.666 165.802 189.661C165.802 189.656 165.802 189.651 165.802 189.646C165.802 189.641 165.802 189.636 165.802 189.63C165.802 189.625 165.802 189.62 165.802 189.615C165.802 189.61 165.802 189.605 165.802 189.6C165.802 189.595 165.802 189.589 165.802 189.584C165.802 189.579 165.802 189.574 165.802 189.569C165.802 189.564 165.802 189.559 165.802 189.553C165.802 189.548 165.802 189.543 165.802 189.538C165.802 189.533 165.802 189.528 165.802 189.523C165.802 189.518 165.802 189.512 165.802 189.507C165.802 189.502 165.802 189.497 165.802 189.492C165.802 189.487 165.802 189.482 165.802 189.476C165.802 189.471 165.802 189.466 165.802 189.461C165.802 189.456 165.802 189.451 165.802 189.446C165.802 189.44 165.802 189.435 165.802 189.43C165.802 189.425 165.802 189.42 165.802 189.415C165.802 189.41 165.802 189.404 165.802 189.399C165.802 189.394 165.802 189.389 165.802 189.384C165.802 189.379 165.802 189.374 165.802 189.368C165.802 189.363 165.802 189.358 165.802 189.353C165.802 189.348 165.802 189.343 165.802 189.338C165.802 189.332 165.802 189.327 165.802 189.322C165.802 189.317 165.802 189.312 165.802 189.307C165.802 189.302 165.802 189.296 165.802 189.291C165.802 189.286 165.802 189.281 165.802 189.276C165.802 189.271 165.802 189.266 165.802 189.26C165.802 189.255 165.802 189.25 165.802 189.245C165.802 189.24 165.802 189.235 165.802 189.229C165.802 189.224 165.802 189.219 165.802 189.214C165.802 189.209 165.802 189.204 165.802 189.199C165.802 189.193 165.802 189.188 165.802 189.183C165.802 189.178 165.802 189.173 165.802 189.168C165.802 189.162 165.802 189.157 165.802 189.152C165.802 189.147 165.802 189.142 165.802 189.137C165.802 189.132 165.802 189.126 165.802 189.121C165.802 189.116 165.802 189.111 165.802 189.106C165.802 189.101 165.802 189.095 165.802 189.09C165.802 189.085 165.802 189.08 165.802 189.075C165.802 189.07 165.802 189.065 165.802 189.059C165.802 189.054 165.802 189.049 165.802 189.044C165.802 189.039 165.802 189.034 165.802 189.028C165.802 189.023 165.802 189.018 165.802 189.013C165.802 189.008 165.802 189.003 165.802 188.997C165.802 188.992 165.802 188.987 165.802 188.982C165.802 188.977 165.802 188.972 165.802 188.967C165.802 188.961 165.802 188.956 165.802 188.951C165.802 188.946 165.802 188.941 165.802 188.936C165.802 188.93 165.802 188.925 165.802 188.92C165.802 188.915 165.802 188.91 165.802 188.905C165.802 188.899 165.802 188.894 165.802 188.889C165.802 188.884 165.802 188.879 165.802 188.874C165.802 188.868 165.802 188.863 165.802 188.858C165.802 188.853 165.802 188.848 165.802 188.843C165.802 188.837 165.802 188.832 165.802 188.827C165.802 188.822 165.802 188.817 165.802 188.812C165.802 188.806 165.802 188.801 165.802 188.796C165.802 188.791 165.802 188.786 165.802 188.781C165.802 188.775 165.802 188.77 165.802 188.765C165.802 188.76 165.802 188.755 165.802 188.749C165.802 188.744 165.802 188.739 165.802 188.734C165.802 188.729 165.802 188.724 165.802 188.718C165.802 188.713 165.802 188.708 165.802 188.703C165.802 188.698 165.802 188.693 165.802 188.687C165.802 188.682 165.802 188.677 165.802 188.672C165.802 188.667 165.802 188.662 165.802 188.656C165.802 188.651 165.802 188.646 165.802 188.641C165.802 188.636 165.802 188.63 165.802 188.625C165.802 188.62 165.802 188.615 165.802 188.61C165.802 188.605 165.802 188.599 165.802 188.594C165.802 188.589 165.802 188.584 165.802 188.579C165.802 188.574 165.802 188.568 165.802 188.563C165.802 188.558 165.802 188.553 165.802 188.548C165.802 188.542 165.802 188.537 165.802 188.532C165.802 188.527 165.802 188.522 165.802 188.517C165.802 188.511 165.802 188.506 165.802 188.501C165.802 188.496 165.802 188.491 165.802 188.485C165.802 188.48 165.802 188.475 165.802 188.47C165.802 188.465 165.802 188.46 165.802 188.454C165.802 188.449 165.802 188.444 165.802 188.439C165.802 188.434 165.802 188.428 165.802 188.423C165.802 188.418 165.802 188.413 165.802 188.408C165.802 188.402 165.802 188.397 165.802 188.392C165.802 188.387 165.802 188.382 165.802 188.377C165.802 188.371 165.802 188.366 165.802 188.361C165.802 188.356 165.802 188.351 165.802 188.345C165.802 188.34 165.802 188.335 165.802 188.33C165.802 188.325 165.802 188.319 165.802 188.314C165.802 188.309 165.802 188.304 165.802 188.299C165.802 188.294 165.802 188.288 165.802 188.283C165.802 188.278 165.802 188.273 165.802 188.268C165.802 188.262 165.802 188.257 165.802 188.252C165.802 188.247 165.802 188.242 165.802 188.236C165.802 188.231 165.802 188.226 165.802 188.221C165.802 188.216 165.802 188.21 165.802 188.205C165.802 188.2 165.802 188.195 165.802 188.19C165.802 188.184 165.802 188.179 165.802 188.174C165.802 188.169 165.802 188.164 165.802 188.158C165.802 188.153 165.802 188.148 165.802 188.143C165.802 188.138 165.802 188.132 165.802 188.127C165.802 188.122 165.802 188.117 165.802 188.112C165.802 188.106 165.802 188.101 165.802 188.096C165.802 188.091 165.802 188.086 165.802 188.08C165.802 188.075 165.802 188.07 165.802 188.065C165.802 188.06 165.802 188.054 165.802 188.049C165.802 188.044 165.802 188.039 165.802 188.034C165.802 188.028 165.802 188.023 165.802 188.018C165.802 188.013 165.802 188.008 165.802 188.002C165.802 187.997 165.802 187.992 165.802 187.987C165.802 187.982 165.802 187.976 165.802 187.971C165.802 187.966 165.802 187.961 165.802 187.956C165.802 187.95 165.802 187.945 165.802 187.94C165.802 187.935 165.802 187.93 165.802 187.924C165.802 187.919 165.802 187.914 165.802 187.909C165.802 187.903 165.802 187.898 165.802 187.893C165.802 187.888 165.802 187.883 165.802 187.877C165.802 187.872 165.802 187.867 165.802 187.862C165.802 187.857 165.802 187.851 165.802 187.846C165.802 187.841 165.802 187.836 165.802 187.831C165.802 187.825 165.802 187.82 165.802 187.815C165.802 187.81 165.802 187.804 165.802 187.799C165.802 187.794 165.802 187.789 165.802 187.784C165.802 187.778 165.802 187.773 165.802 187.768C165.802 187.763 165.802 187.758 165.802 187.752C165.802 187.747 165.802 187.742 165.802 187.737C165.802 187.731 165.802 187.726 165.802 187.721C165.802 187.716 165.802 187.711 165.802 187.705C165.802 187.7 165.802 187.695 165.802 187.69C165.802 187.684 165.802 187.679 165.802 187.674C165.802 187.669 165.802 187.664 165.802 187.658C165.802 187.653 165.802 187.648 165.802 187.643C165.802 187.638 165.802 187.632 165.802 187.627C165.802 187.622 165.802 187.617 165.802 187.611C165.802 187.606 165.802 187.601 165.802 187.596C165.802 187.591 165.802 187.585 165.802 187.58C165.802 187.575 165.802 187.57 165.802 187.564C165.802 187.559 165.802 187.554 165.802 187.549C165.802 187.543 165.802 187.538 165.802 187.533C165.802 187.528 165.802 187.523 165.802 187.517C165.802 187.512 165.802 187.507 165.802 187.502C165.802 187.496 165.802 187.491 165.802 187.486C165.802 187.481 165.802 187.476 165.802 187.47C165.802 187.465 165.802 187.46 165.802 187.455C165.802 187.449 165.802 187.444 165.802 187.439C165.802 187.434 165.802 187.428 165.802 187.423C165.802 187.418 165.802 187.413 165.802 187.408C165.802 187.402 165.802 187.397 165.802 187.392C165.802 187.387 165.802 187.381 165.802 187.376C165.802 187.371 165.802 187.366 165.802 187.36C165.802 187.355 165.802 187.35 165.802 187.345C165.802 187.34 165.802 187.334 165.802 187.329C165.802 187.324 165.802 187.319 165.802 187.313C165.802 187.308 165.802 187.303 165.802 187.298C165.802 187.292 165.802 187.287 165.802 187.282C165.802 187.277 165.802 187.271 165.802 187.266C165.802 187.261 165.802 187.256 165.802 187.251C165.802 187.245 165.802 187.24 165.802 187.235C165.802 187.23 165.802 187.224 165.802 187.219C165.802 187.214 165.802 187.209 165.802 187.203C165.802 187.198 165.802 187.193 165.802 187.188C165.802 187.182 165.802 187.177 165.802 187.172C165.802 187.167 165.802 187.161 165.802 187.156C165.802 187.151 165.802 187.146 165.802 187.14C165.802 187.135 165.802 187.13 165.802 187.125C165.802 187.12 165.802 187.114 165.802 187.109C165.802 187.104 165.802 187.099 165.802 187.093C165.802 187.088 165.802 187.083 165.802 187.078C165.802 187.072 165.802 187.067 165.802 187.062C165.802 187.057 165.802 187.051 165.802 187.046C165.802 187.041 165.802 187.036 165.802 187.03C165.802 187.025 165.802 187.02 165.802 187.015C165.802 187.009 165.802 187.004 165.802 186.999C165.802 186.994 165.802 186.988 165.802 186.983C165.802 186.978 165.802 186.973 165.802 186.967C165.802 186.962 165.802 186.957 165.802 186.952C165.802 186.946 165.802 186.941 165.802 186.936C165.802 186.931 165.802 186.925 165.802 186.92C165.802 186.915 165.802 186.91 165.802 186.904C165.802 186.899 165.802 186.894 165.802 186.889C165.802 186.883 165.802 186.878 165.802 186.873C165.802 186.868 165.802 186.862 165.802 186.857C165.802 186.852 165.802 186.847 165.802 186.841C165.802 186.836 165.802 186.831 165.802 186.826C165.802 186.82 165.802 186.815 165.802 186.81C165.802 186.804 165.802 186.799 165.802 186.794C165.802 186.789 165.802 186.783 165.802 186.778C165.802 186.773 165.802 186.768 165.802 186.762C165.802 186.757 165.802 186.752 165.802 186.747C165.802 186.741 165.802 186.736 165.802 186.731C165.802 186.726 165.802 186.72 165.802 186.715C165.802 186.71 165.802 186.705 165.802 186.699C165.802 186.694 165.802 186.689 165.802 186.683C165.802 186.678 165.802 186.673 165.802 186.668C165.802 186.662 165.802 186.657 165.802 186.652C165.802 186.647 165.802 186.641 165.802 186.636C165.802 186.631 165.802 186.626 165.802 186.62C165.802 186.615 165.802 186.61 165.802 186.605C165.802 186.599 165.802 186.594 165.802 186.589C165.802 186.583 165.802 186.578 165.802 186.573C165.802 186.568 165.802 186.562 165.802 186.557C165.802 186.552 165.802 186.547 165.802 186.541C165.802 186.536 165.802 186.531 165.802 186.525C165.802 186.52 165.802 186.515 165.802 186.51C165.802 186.504 165.802 186.499 165.802 186.494C165.802 186.489 165.802 186.483 165.802 186.478C165.802 186.473 165.802 186.468 165.802 186.462C165.802 186.457 165.802 186.452 165.802 186.446C165.802 186.441 165.802 186.436 165.802 186.431C165.802 186.425 165.802 186.42 165.802 186.415C165.802 186.41 165.802 186.404 165.802 186.399C165.802 186.394 165.802 186.388 165.802 186.383C165.802 186.378 165.802 186.373 165.802 186.367C165.802 186.362 165.802 186.357 165.802 186.351C165.802 186.346 165.802 186.341 165.802 186.336C165.802 186.33 165.802 186.325 165.802 186.32C165.802 186.315 165.802 186.309 165.802 186.304C165.802 186.299 165.802 186.293 165.802 186.288C165.802 186.283 165.802 186.278 165.802 186.272C165.802 186.267 165.802 186.262 165.802 186.256C165.802 186.251 165.802 186.246 165.802 186.241C165.802 186.235 165.802 186.23 165.802 186.225C165.802 186.219 165.802 186.214 165.802 186.209C165.802 186.204 165.802 186.198 165.802 186.193C165.802 186.188 165.802 186.182 165.802 186.177C165.802 186.172 165.802 186.167 165.802 186.161C165.802 186.156 165.802 186.151 165.802 186.145C165.802 186.14 165.802 186.135 165.802 186.13C165.802 186.124 165.802 186.119 165.802 186.114C165.802 186.108 165.802 186.103 165.802 186.098C165.802 186.093 165.802 186.087 165.802 186.082C165.802 186.077 165.802 186.071 165.802 186.066C165.802 186.061 165.802 186.056 165.802 186.05C165.802 186.045 165.802 186.04 165.802 186.034C165.802 186.029 165.802 186.024 165.802 186.019C165.802 186.013 165.802 186.008 165.802 186.003C165.802 185.997 165.802 185.992 165.802 185.987C165.802 185.981 165.802 185.976 165.802 185.971C165.802 185.966 165.802 185.96 165.802 185.955C165.802 185.95 165.802 185.944 165.802 185.939C165.802 185.934 165.802 185.929 165.802 185.923C165.802 185.918 165.802 185.913 165.802 185.907C165.802 185.902 165.802 185.897 165.802 185.891C165.802 185.886 165.802 185.881 165.802 185.876C165.802 185.87 165.802 185.865 165.802 185.86C165.802 185.854 165.802 185.849 165.802 185.844C165.802 185.838 165.802 185.833 165.802 185.828C165.802 185.823 165.802 185.817 165.802 185.812C165.802 185.807 165.802 185.801 165.802 185.796C165.802 185.791 165.802 185.785 165.802 185.78C165.802 185.775 165.802 185.77 165.802 185.764C165.802 185.759 165.802 185.754 165.802 185.748C165.802 185.743 165.802 185.738 165.802 185.732C165.802 185.727 165.802 185.722 165.802 185.717C165.802 185.711 165.802 185.706 165.802 185.701C165.802 185.695 165.802 185.69 165.802 185.685C165.802 185.679 165.802 185.674 165.802 185.669C165.802 185.663 165.802 185.658 165.802 185.653C165.802 185.648 165.802 185.642 165.802 185.637C165.802 185.632 165.802 185.626 165.802 185.621C165.802 185.616 165.802 185.61 165.802 185.605C165.802 185.6 165.802 185.594 165.802 185.589H159.802ZM162.802 196.474H186.457V190.474H162.802V196.474ZM189.457 193.474V157.04H183.457V193.474H189.457Z" fill="#F02FA3"/>
</g>
<defs>
<clipPath id="clip0_31_13">
<rect width="250" height="219" fill="white"/>
</clipPath>
</defs>
</svg>
