<svg width="317" height="226" viewBox="0 0 317 226" fill="none" xmlns="http://www.w3.org/2000/svg">
<path d="M66.0753 90.8136C61.953 90.8136 58.1019 90.0814 54.522 88.6169C50.9421 87.0981 47.7961 85.0098 45.084 82.352C42.372 79.6942 40.2566 76.6025 38.7379 73.0768C37.2734 69.4969 36.5411 65.6458 36.5411 61.5235C36.5411 57.4555 37.2734 53.6586 38.7379 50.1329C40.2566 46.6073 42.3449 43.5427 45.0027 40.9391C47.7147 38.2813 50.8607 36.2202 54.4406 34.7557C58.0205 33.2912 61.8716 32.5589 65.9939 32.5589C68.8687 32.5589 71.6621 32.9657 74.3741 33.7793C77.1404 34.5929 79.6355 35.732 81.8594 37.1965C84.0832 38.661 85.9003 40.3425 87.3106 42.2409L81.6153 48.1803C79.9881 46.6073 78.3066 45.3055 76.5709 44.2749C74.8894 43.2444 73.1537 42.4579 71.3638 41.9155C69.5738 41.373 67.7839 41.1018 65.9939 41.1018C63.0649 41.1018 60.3529 41.6171 57.8578 42.6477C55.4169 43.6783 53.2473 45.1157 51.3489 46.9599C49.5047 48.804 48.0673 50.9737 47.0367 53.4688C46.0061 55.9096 45.4908 58.5945 45.4908 61.5235C45.4908 64.3441 46.0333 67.029 47.1181 69.5783C48.2029 72.0734 49.6945 74.2701 51.5929 76.1686C53.5456 78.067 55.7695 79.5586 58.2646 80.6434C60.8139 81.7283 63.4988 82.2707 66.3194 82.2707C68.4347 82.2707 70.4417 81.9723 72.3401 81.3757C74.2385 80.7248 75.92 79.8298 77.3845 78.6908C78.849 77.5517 79.9881 76.2499 80.8017 74.7854C81.6153 73.2667 82.0221 71.6666 82.0221 69.9851V68.3579L83.2425 69.4969H65.8312V60.7913H91.0532C91.1617 61.3879 91.243 61.9846 91.2973 62.5812C91.3515 63.1236 91.3786 63.666 91.3786 64.2085C91.4329 64.6966 91.46 65.1848 91.46 65.673C91.46 69.4156 90.8091 72.8328 89.5073 75.9245C88.2055 78.962 86.3885 81.5927 84.0561 83.8165C81.778 86.0404 79.0931 87.7761 76.0013 89.0237C72.9639 90.217 69.6552 90.8136 66.0753 90.8136ZM100.786 90V47.2853H109.248V60.7099L108.434 57.4555C109.031 55.3943 110.034 53.523 111.444 51.8415C112.909 50.1601 114.563 48.8312 116.407 47.8548C118.306 46.8785 120.259 46.3903 122.265 46.3903C123.188 46.3903 124.055 46.4717 124.869 46.6344C125.737 46.7971 126.415 46.987 126.903 47.2039L124.706 56.3164C124.055 56.0452 123.323 55.8282 122.51 55.6655C121.75 55.4486 120.991 55.3401 120.231 55.3401C118.767 55.3401 117.357 55.6384 116.001 56.235C114.699 56.7775 113.533 57.5639 112.502 58.5945C111.526 59.5709 110.739 60.737 110.143 62.0931C109.546 63.3948 109.248 64.8322 109.248 66.4052V90H100.786ZM150.975 90.8136C146.798 90.8136 143.055 89.8644 139.747 87.966C136.492 86.0133 133.916 83.3826 132.017 80.0739C130.119 76.711 129.17 72.887 129.17 68.602C129.17 64.3169 130.119 60.5201 132.017 57.2114C133.916 53.8484 136.492 51.2178 139.747 49.3193C143.055 47.3667 146.798 46.3903 150.975 46.3903C155.097 46.3903 158.785 47.3667 162.04 49.3193C165.348 51.2178 167.952 53.8484 169.85 57.2114C171.749 60.5201 172.698 64.3169 172.698 68.602C172.698 72.887 171.749 76.711 169.85 80.0739C167.952 83.3826 165.348 86.0133 162.04 87.966C158.785 89.8644 155.097 90.8136 150.975 90.8136ZM150.975 83.1656C153.524 83.1656 155.802 82.5419 157.809 81.2943C159.816 79.9926 161.389 78.2568 162.528 76.0872C163.667 73.8633 164.209 71.3683 164.155 68.602C164.209 65.7814 163.667 63.2864 162.528 61.1167C161.389 58.8929 159.816 57.1571 157.809 55.9096C155.802 54.6621 153.524 54.0383 150.975 54.0383C148.425 54.0383 146.12 54.6892 144.059 55.991C142.052 57.2385 140.479 58.9742 139.34 61.1981C138.201 63.3677 137.658 65.8357 137.713 68.602C137.658 71.3683 138.201 73.8633 139.34 76.0872C140.479 78.2568 142.052 79.9926 144.059 81.2943C146.12 82.5419 148.425 83.1656 150.975 83.1656ZM196.8 90.8136C193.763 90.8136 191.105 90.1085 188.827 88.6982C186.603 87.288 184.867 85.3082 183.62 82.7588C182.426 80.2095 181.83 77.172 181.83 73.6464V47.2853H190.21V71.3683C190.21 73.8633 190.589 76.033 191.349 77.8772C192.162 79.6671 193.302 81.0503 194.766 82.0266C196.285 83.0029 198.102 83.4911 200.217 83.4911C201.79 83.4911 203.228 83.247 204.529 82.7588C205.831 82.2164 206.943 81.4842 207.865 80.5621C208.842 79.64 209.601 78.5281 210.143 77.2263C210.686 75.9245 210.957 74.5142 210.957 72.9955V47.2853H219.337V90H210.957V81.0503L212.421 80.0739C211.771 82.0808 210.659 83.8979 209.086 85.5251C207.567 87.1524 205.75 88.4541 203.634 89.4305C201.519 90.3526 199.241 90.8136 196.8 90.8136ZM231.091 107.899V47.2853H239.553V57.0487L238.251 56.3164C238.577 54.6892 239.499 53.1433 241.017 51.6788C242.536 50.1601 244.38 48.9396 246.55 48.0176C248.774 47.0412 251.052 46.553 253.384 46.553C257.235 46.553 260.653 47.5023 263.636 49.4007C266.619 51.2991 268.979 53.9027 270.714 57.2114C272.45 60.5201 273.318 64.3169 273.318 68.602C273.318 72.8328 272.45 76.6296 270.714 79.9926C269.033 83.3013 266.7 85.9319 263.717 87.8846C260.734 89.783 257.371 90.7323 253.628 90.7323C251.133 90.7323 248.72 90.2441 246.387 89.2677C244.055 88.2372 242.075 86.9354 240.448 85.3624C238.821 83.7894 237.817 82.1622 237.437 80.4807L239.553 79.3417V107.899H231.091ZM252.245 83.0029C254.74 83.0029 256.964 82.3792 258.917 81.1316C260.87 79.8841 262.415 78.1755 263.554 76.0059C264.694 73.8362 265.263 71.3683 265.263 68.602C265.263 65.8357 264.694 63.3948 263.554 61.2794C262.47 59.1098 260.951 57.4012 258.998 56.1537C257.046 54.9061 254.795 54.2824 252.245 54.2824C249.696 54.2824 247.445 54.9061 245.492 56.1537C243.54 57.347 241.994 59.0285 240.855 61.1981C239.716 63.3677 239.146 65.8357 239.146 68.602C239.146 71.3683 239.716 73.8362 240.855 76.0059C241.994 78.1755 243.54 79.8841 245.492 81.1316C247.445 82.3792 249.696 83.0029 252.245 83.0029ZM91.6189 192V135.047H100.406V192H91.6189ZM95.5242 167.754V159.293H124.896V167.754H95.5242ZM95.5242 143.509V135.047H128.557V143.509H95.5242ZM139.831 192V149.285H148.211V192H139.831ZM143.899 139.847C142.109 139.847 140.726 139.386 139.749 138.464C138.773 137.542 138.285 136.24 138.285 134.559C138.285 132.986 138.773 131.711 139.749 130.735C140.78 129.759 142.163 129.27 143.899 129.27C145.689 129.27 147.072 129.731 148.048 130.654C149.024 131.576 149.513 132.877 149.513 134.559C149.513 136.132 148.997 137.407 147.967 138.383C146.99 139.359 145.634 139.847 143.899 139.847ZM175.086 192L157.024 149.285H166.055L179.073 181.26L177.527 181.993L191.44 149.285H200.064L181.107 192H175.086ZM226.473 192.814C222.08 192.814 218.175 191.892 214.757 190.047C211.394 188.149 208.737 185.572 206.784 182.318C204.886 179.064 203.936 175.321 203.936 171.09C203.936 167.727 204.479 164.663 205.564 161.896C206.648 159.13 208.14 156.743 210.038 154.737C211.991 152.675 214.296 151.102 216.954 150.018C219.666 148.878 222.595 148.309 225.741 148.309C228.507 148.309 231.084 148.851 233.47 149.936C235.857 150.967 237.918 152.404 239.654 154.248C241.444 156.093 242.8 158.289 243.722 160.839C244.698 163.334 245.159 166.073 245.105 169.056L245.024 172.636H210.12L208.248 165.964H237.783L236.562 167.348V165.395C236.399 163.605 235.803 162.005 234.772 160.595C233.742 159.184 232.44 158.072 230.867 157.259C229.294 156.445 227.585 156.038 225.741 156.038C222.812 156.038 220.344 156.608 218.337 157.747C216.33 158.832 214.812 160.459 213.781 162.629C212.75 164.744 212.235 167.375 212.235 170.521C212.235 173.504 212.859 176.107 214.106 178.331C215.354 180.501 217.117 182.182 219.395 183.376C221.673 184.569 224.304 185.166 227.287 185.166C229.402 185.166 231.355 184.813 233.145 184.108C234.989 183.403 236.969 182.128 239.084 180.284L243.315 186.223C242.013 187.525 240.413 188.664 238.515 189.641C236.671 190.617 234.691 191.403 232.575 192C230.514 192.542 228.48 192.814 226.473 192.814Z" fill="#393FD6" fill-opacity="0.8"/>
<path d="M54.522 88.6169L53.2931 91.5136L53.3118 91.5215L53.3306 91.5292L54.522 88.6169ZM45.084 82.352L47.2864 80.1047L47.2864 80.1047L45.084 82.352ZM38.7379 73.0768L35.8255 74.2682L35.8365 74.2951L35.848 74.3217L38.7379 73.0768ZM38.7379 50.1329L35.848 48.8881L35.8399 48.9069L35.832 48.9259L38.7379 50.1329ZM45.0027 40.9391L47.2046 43.1869L47.2051 43.1865L45.0027 40.9391ZM54.4406 34.7557L53.2492 31.8433L53.2492 31.8433L54.4406 34.7557ZM74.3741 33.7793L73.47 36.7932L73.4781 36.7957L73.4863 36.7981L74.3741 33.7793ZM87.3106 42.2409L89.5817 44.4187L91.4223 42.4993L89.8365 40.3645L87.3106 42.2409ZM81.6153 48.1803L79.4283 50.4426L81.6998 52.6384L83.8864 50.3581L81.6153 48.1803ZM76.5709 44.2749L74.9266 46.9577L74.9454 46.9693L74.9644 46.9805L76.5709 44.2749ZM57.8578 42.6477L56.6565 39.7394L56.6452 39.7441L56.6338 39.7489L57.8578 42.6477ZM51.3489 46.9599L49.1564 44.7029L49.14 44.7188L49.1239 44.7349L51.3489 46.9599ZM47.0367 53.4688L49.9355 54.6927L49.9403 54.6814L49.945 54.67L47.0367 53.4688ZM47.1181 69.5783L44.2227 70.8104L44.2275 70.8217L44.2324 70.8329L47.1181 69.5783ZM51.5929 76.1686L49.368 78.3936L49.3836 78.4092L49.3995 78.4247L51.5929 76.1686ZM58.2646 80.6434L57.0099 83.5291L57.0212 83.534L57.0325 83.5388L58.2646 80.6434ZM72.3401 81.3757L73.2835 84.3775L73.3222 84.3654L73.3606 84.3522L72.3401 81.3757ZM77.3845 78.6908L75.4527 76.207L75.4527 76.207L77.3845 78.6908ZM80.8017 74.7854L83.5523 76.3136L83.564 76.2925L83.5753 76.2713L80.8017 74.7854ZM82.0221 68.3579L84.1691 66.0576L78.8755 61.1169V68.3579H82.0221ZM83.2425 69.4969V72.6435H91.2255L85.3895 67.1966L83.2425 69.4969ZM65.8312 69.4969H62.6846V72.6435H65.8312V69.4969ZM65.8312 60.7913V57.6447H62.6846V60.7913H65.8312ZM91.0532 60.7913L94.149 60.2284L93.6793 57.6447H91.0532V60.7913ZM91.2973 62.5812L88.1636 62.8661L88.1649 62.8802L88.1663 62.8943L91.2973 62.5812ZM91.3786 64.2085H88.232V64.3827L88.2513 64.5559L91.3786 64.2085ZM89.5073 75.9245L92.3995 77.164L92.4035 77.1548L92.4073 77.1455L89.5073 75.9245ZM84.0561 83.8165L81.8847 81.5392L81.8713 81.552L81.8581 81.5649L84.0561 83.8165ZM76.0013 89.0237L77.1519 91.9524L77.1654 91.9471L77.1788 91.9417L76.0013 89.0237ZM66.0753 87.667C62.3343 87.667 58.8907 87.0044 55.7134 85.7045L53.3306 91.5292C57.313 93.1584 61.5716 93.9602 66.0753 93.9602V87.667ZM55.7509 85.7202C52.5243 84.3513 49.7106 82.4804 47.2864 80.1047L42.8817 84.5994C45.8816 87.5393 49.3598 89.8449 53.2931 91.5136L55.7509 85.7202ZM47.2864 80.1047C44.8698 77.7364 42.9865 74.9862 41.6277 71.832L35.848 74.3217C37.5267 78.2188 39.8742 81.6521 42.8817 84.5994L47.2864 80.1047ZM41.6502 71.8854C40.3504 68.7081 39.6877 65.2645 39.6877 61.5235H33.3945C33.3945 66.0272 34.1964 70.2858 35.8255 74.2682L41.6502 71.8854ZM39.6877 61.5235C39.6877 57.8422 40.3484 54.4585 41.6437 51.34L35.832 48.9259C34.1983 52.8587 33.3945 57.0687 33.3945 61.5235H39.6877ZM41.6277 51.3778C42.9898 48.2158 44.8485 45.4949 47.2046 43.1869L42.8008 38.6913C39.8413 41.5904 37.5234 44.9988 35.848 48.8881L41.6277 51.3778ZM47.2051 43.1865C49.6208 40.819 52.4218 38.9813 55.632 37.668L53.2492 31.8433C49.2996 33.4591 45.8086 35.7436 42.8003 38.6918L47.2051 43.1865ZM55.632 37.668C58.8094 36.3681 62.253 35.7055 65.9939 35.7055V29.4123C61.4902 29.4123 57.2316 30.2142 53.2492 31.8433L55.632 37.668ZM65.9939 35.7055C68.5672 35.7055 71.0557 36.0689 73.47 36.7932L75.2783 30.7654C72.2684 29.8625 69.1702 29.4123 65.9939 29.4123V35.7055ZM73.4863 36.7981C75.9785 37.5311 78.1855 38.5448 80.1288 39.8244L83.59 34.5686C81.0854 32.9192 78.3023 31.6548 75.262 30.7606L73.4863 36.7981ZM80.1288 39.8244C82.084 41.112 83.6194 42.5486 84.7847 44.1173L89.8365 40.3645C88.1813 38.1363 86.0825 36.21 83.59 34.5686L80.1288 39.8244ZM85.0394 40.0631L79.3441 46.0025L83.8864 50.3581L89.5817 44.4187L85.0394 40.0631ZM83.8022 45.9179C82.0202 44.1953 80.1466 42.7386 78.1773 41.5693L74.9644 46.9805C76.4665 47.8724 77.9559 49.0193 79.4283 50.4426L83.8022 45.9179ZM78.2152 41.5921C76.3172 40.4289 74.3368 39.5285 72.2763 38.9041L70.4512 44.9268C71.9706 45.3872 73.4616 46.0598 74.9266 46.9577L78.2152 41.5921ZM72.2763 38.9041C70.2038 38.2761 68.1067 37.9552 65.9939 37.9552V44.2484C67.461 44.2484 68.9438 44.47 70.4512 44.9268L72.2763 38.9041ZM65.9939 37.9552C62.688 37.9552 59.5639 38.5386 56.6565 39.7394L59.059 45.556C61.1418 44.6957 63.4418 44.2484 65.9939 44.2484V37.9552ZM56.6338 39.7489C53.8335 40.9313 51.3353 42.5862 49.1564 44.7029L53.5414 49.2168C55.1593 47.6452 57.0004 46.4253 59.0817 45.5465L56.6338 39.7489ZM49.1239 44.7349C46.9765 46.8823 45.3115 49.4032 44.1284 52.2675L49.945 54.67C50.8231 52.5441 52.0329 50.7258 53.5738 49.1848L49.1239 44.7349ZM44.1379 52.2448C42.9273 55.112 42.3443 58.2186 42.3443 61.5235H48.6374C48.6374 58.9705 49.0849 56.7072 49.9355 54.6927L44.1379 52.2448ZM42.3443 61.5235C42.3443 64.7596 42.9691 67.8643 44.2227 70.8104L50.0134 68.3462C49.0974 66.1937 48.6374 63.9285 48.6374 61.5235H42.3443ZM44.2324 70.8329C45.4725 73.6851 47.1866 76.2122 49.368 78.3936L53.8179 73.9436C52.2024 72.3281 50.9333 70.4617 50.0037 68.3237L44.2324 70.8329ZM49.3995 78.4247C51.6243 80.5876 54.1661 82.2927 57.0099 83.5291L59.5192 77.7578C57.3728 76.8246 55.467 75.5464 53.7864 73.9125L49.3995 78.4247ZM57.0325 83.5388C59.9786 84.7924 63.0833 85.4173 66.3194 85.4173V79.1241C63.9144 79.1241 61.6492 78.6641 59.4966 77.7481L57.0325 83.5388ZM66.3194 85.4173C68.7346 85.4173 71.0611 85.076 73.2835 84.3775L71.3967 78.3739C69.8222 78.8687 68.1349 79.1241 66.3194 79.1241V85.4173ZM73.3606 84.3522C75.5611 83.5978 77.5558 82.5438 79.3163 81.1745L75.4527 76.207C74.2842 77.1158 72.916 77.8519 71.3196 78.3992L73.3606 84.3522ZM79.3163 81.1745C81.0793 79.8034 82.5118 78.1864 83.5523 76.3136L78.051 73.2573C77.4643 74.3134 76.6187 75.3001 75.4527 76.207L79.3163 81.1745ZM83.5753 76.2713C84.6275 74.3073 85.1687 72.1982 85.1687 69.9851H78.8755C78.8755 71.135 78.6031 72.2261 78.028 73.2995L83.5753 76.2713ZM85.1687 69.9851V68.3579H78.8755V69.9851H85.1687ZM79.8751 70.6582L81.0955 71.7973L85.3895 67.1966L84.1691 66.0576L79.8751 70.6582ZM83.2425 66.3504H65.8312V72.6435H83.2425V66.3504ZM68.9778 69.4969V60.7913H62.6846V69.4969H68.9778ZM65.8312 63.9379H91.0532V57.6447H65.8312V63.9379ZM87.9574 61.3542C88.0493 61.8599 88.1179 62.3638 88.1636 62.8661L94.4309 62.2964C94.3681 61.6054 94.274 60.916 94.149 60.2284L87.9574 61.3542ZM88.1663 62.8943C88.2102 63.3332 88.232 63.7711 88.232 64.2085H94.5252C94.5252 63.561 94.4928 62.9141 94.4283 62.2681L88.1663 62.8943ZM88.2513 64.5559C88.2928 64.9294 88.3134 65.3016 88.3134 65.673H94.6066C94.6066 65.068 94.573 64.4638 94.506 63.861L88.2513 64.5559ZM88.3134 65.673C88.3134 69.0447 87.7285 72.0406 86.6073 74.7034L92.4073 77.1455C93.8897 73.6249 94.6066 69.7864 94.6066 65.673H88.3134ZM86.6152 74.685C85.4766 77.3416 83.9012 79.6166 81.8847 81.5392L86.2275 86.0938C88.8758 83.5688 90.9345 80.5824 92.3995 77.164L86.6152 74.685ZM81.8581 81.5649C79.8873 83.4888 77.5535 85.0042 74.8239 86.1057L77.1788 91.9417C80.6326 90.548 83.6687 88.592 86.2541 86.0682L81.8581 81.5649ZM74.8508 86.095C72.2138 87.1309 69.2996 87.667 66.0753 87.667V93.9602C70.0107 93.9602 73.7139 93.303 77.1519 91.9524L74.8508 86.095ZM100.786 90H97.6394V93.1466H100.786V90ZM100.786 47.2853V44.1387H97.6394V47.2853H100.786ZM109.248 47.2853H112.394V44.1387H109.248V47.2853ZM109.248 60.7099L106.195 61.4731L112.394 60.7099H109.248ZM108.434 57.4555L105.411 56.5805L105.176 57.3955L105.381 58.2186L108.434 57.4555ZM111.444 51.8415L109.072 49.7749L109.052 49.797L109.033 49.8195L111.444 51.8415ZM116.407 47.8548L114.968 45.0566L114.952 45.0652L114.935 45.0739L116.407 47.8548ZM124.869 46.6344L124.252 49.7199L124.27 49.7236L124.289 49.7271L124.869 46.6344ZM126.903 47.2039L129.962 47.9414L130.576 45.3931L128.181 44.3285L126.903 47.2039ZM124.706 56.3164L123.496 59.221L126.901 60.6396L127.765 57.0538L124.706 56.3164ZM122.51 55.6655L121.645 58.691L121.768 58.726L121.892 58.751L122.51 55.6655ZM116.001 56.235L117.211 59.1396L117.239 59.1277L117.268 59.1152L116.001 56.235ZM112.502 58.5945L114.727 60.8195L114.727 60.8195L112.502 58.5945ZM110.143 62.0931L113.003 63.4041L113.013 63.3823L113.023 63.3603L110.143 62.0931ZM109.248 90V93.1466H112.394V90H109.248ZM103.933 90V47.2853H97.6394V90H103.933ZM100.786 50.4319H109.248V44.1387H100.786V50.4319ZM106.101 47.2853V60.7099H112.394V47.2853H106.101ZM112.3 59.9468L111.487 56.6923L105.381 58.2186L106.195 61.4731L112.3 59.9468ZM111.457 58.3304C111.929 56.6997 112.72 55.2173 113.855 53.8636L109.033 49.8195C107.348 51.8287 106.133 54.0889 105.411 56.5805L111.457 58.3304ZM113.817 53.9082C115.045 52.4979 116.4 51.4192 117.88 50.6358L114.935 45.0739C112.727 46.2431 110.772 47.8222 109.072 49.7749L113.817 53.9082ZM117.847 50.6531C119.329 49.8907 120.791 49.5369 122.265 49.5369V43.2437C119.726 43.2437 117.283 43.8663 114.968 45.0566L117.847 50.6531ZM122.265 49.5369C123.003 49.5369 123.662 49.602 124.252 49.7199L125.486 43.5489C124.448 43.3414 123.372 43.2437 122.265 43.2437V49.5369ZM124.289 49.7271C125.051 49.8699 125.458 50.005 125.625 50.0793L128.181 44.3285C127.372 43.969 126.423 43.7243 125.449 43.5417L124.289 49.7271ZM123.844 46.4665L121.647 55.579L127.765 57.0538L129.962 47.9414L123.844 46.4665ZM125.916 53.4119C125.044 53.0485 124.109 52.7765 123.127 52.58L121.892 58.751C122.537 58.88 123.066 59.042 123.496 59.221L125.916 53.4119ZM123.374 52.64C122.345 52.3459 121.295 52.1935 120.231 52.1935V58.4867C120.687 58.4867 121.156 58.5512 121.645 58.691L123.374 52.64ZM120.231 52.1935C118.325 52.1935 116.484 52.5846 114.733 53.3549L117.268 59.1152C118.229 58.6921 119.208 58.4867 120.231 58.4867V52.1935ZM114.79 53.3305C113.096 54.0363 111.588 55.0583 110.277 56.3695L114.727 60.8195C115.477 60.0696 116.301 59.5186 117.211 59.1396L114.79 53.3305ZM110.277 56.3695C109.005 57.6413 108.005 59.1389 107.262 60.8258L113.023 63.3603C113.474 62.3351 114.046 61.5004 114.727 60.8195L110.277 56.3695ZM107.282 60.782C106.479 62.5342 106.101 64.4247 106.101 66.4052H112.394C112.394 65.2397 112.613 64.2555 113.003 63.4041L107.282 60.782ZM106.101 66.4052V90H112.394V66.4052H106.101ZM109.248 86.8534H100.786V93.1466H109.248V86.8534ZM139.747 87.966L138.128 90.6641L138.154 90.6799L138.181 90.6952L139.747 87.966ZM132.017 80.0739L129.277 81.6208L129.283 81.6303L129.288 81.6399L132.017 80.0739ZM132.017 57.2114L134.747 58.7773L134.752 58.7678L134.757 58.7582L132.017 57.2114ZM139.747 49.3193L141.332 52.0373L141.339 52.0333L141.346 52.0292L139.747 49.3193ZM162.04 49.3193L160.421 52.0175L160.447 52.0333L160.474 52.0486L162.04 49.3193ZM169.85 57.2114L167.11 58.7582L167.116 58.7678L167.121 58.7773L169.85 57.2114ZM169.85 80.0739L172.58 81.6399L172.585 81.6303L172.591 81.6208L169.85 80.0739ZM162.04 87.966L163.625 90.6839L163.632 90.6799L163.639 90.6758L162.04 87.966ZM157.809 81.2943L159.47 83.9667L159.496 83.9507L159.521 83.9342L157.809 81.2943ZM162.528 76.0872L165.314 77.5499L165.321 77.5358L165.328 77.5217L162.528 76.0872ZM164.155 68.602L161.009 68.5415L161.008 68.6026L161.009 68.6637L164.155 68.602ZM162.528 61.1167L159.727 62.5512L159.734 62.5653L159.742 62.5794L162.528 61.1167ZM144.059 55.991L145.72 58.6633L145.73 58.6574L145.739 58.6514L144.059 55.991ZM139.34 61.1981L142.126 62.6607L142.133 62.6467L142.14 62.6325L139.34 61.1981ZM137.713 68.602L140.859 68.6637L140.86 68.602L140.859 68.5403L137.713 68.602ZM139.34 76.0872L136.539 77.5217L136.547 77.5358L136.554 77.5499L139.34 76.0872ZM144.059 81.2943L142.346 83.9342L142.388 83.9609L142.43 83.9862L144.059 81.2943ZM150.975 87.667C147.294 87.667 144.1 86.8362 141.313 85.2367L138.181 90.6952C142.01 92.8926 146.302 93.9602 150.975 93.9602V87.667ZM141.366 85.2678C138.574 83.593 136.379 81.3531 134.747 78.508L129.288 81.6399C131.452 85.4121 134.41 88.4336 138.128 90.6641L141.366 85.2678ZM134.757 78.5271C133.154 75.6864 132.316 72.4057 132.316 68.602H126.023C126.023 73.3683 127.084 77.7356 129.277 81.6208L134.757 78.5271ZM132.316 68.602C132.316 64.7973 133.154 61.5529 134.747 58.7773L129.288 55.6454C127.084 59.4873 126.023 63.8366 126.023 68.602H132.316ZM134.757 58.7582C136.389 55.8684 138.572 53.6474 141.332 52.0373L138.161 46.6014C134.412 48.7882 131.443 51.8285 129.277 55.6645L134.757 58.7582ZM141.346 52.0292C144.128 50.3871 147.31 49.5369 150.975 49.5369V43.2437C146.286 43.2437 141.982 44.3462 138.147 46.6095L141.346 52.0292ZM150.975 49.5369C154.577 49.5369 157.697 50.3834 160.421 52.0175L163.659 46.6212C159.873 44.35 155.616 43.2437 150.975 43.2437V49.5369ZM160.474 52.0486C163.286 53.6619 165.486 55.8814 167.11 58.7582L172.591 55.6645C170.418 51.8155 167.411 48.7736 163.606 46.5901L160.474 52.0486ZM167.121 58.7773C168.714 61.5529 169.551 64.7973 169.551 68.602H175.845C175.845 63.8366 174.784 59.4873 172.58 55.6454L167.121 58.7773ZM169.551 68.602C169.551 72.4057 168.714 75.6864 167.11 78.5271L172.591 81.6208C174.784 77.7356 175.845 73.3683 175.845 68.602H169.551ZM167.121 78.508C165.496 81.3404 163.283 83.5784 160.44 85.2561L163.639 90.6758C167.413 88.4482 170.408 85.4248 172.58 81.6399L167.121 78.508ZM160.454 85.248C157.726 86.8397 154.594 87.667 150.975 87.667V93.9602C155.6 93.9602 159.845 92.8891 163.625 90.6839L160.454 85.248ZM150.975 86.3122C154.063 86.3122 156.925 85.5487 159.47 83.9667L156.148 78.622C154.679 79.5351 152.985 80.0191 150.975 80.0191V86.3122ZM159.521 83.9342C161.993 82.3312 163.93 80.1853 165.314 77.5499L159.742 74.6246C158.847 76.3284 157.639 77.6539 156.097 78.6545L159.521 83.9342ZM165.328 77.5217C166.729 74.7872 167.364 71.7693 167.301 68.5403L161.009 68.6637C161.054 70.9672 160.605 72.9395 159.727 74.6528L165.328 77.5217ZM167.301 68.6625C167.364 65.3929 166.734 62.3598 165.314 59.6541L159.742 62.5794C160.599 64.2129 161.055 66.17 161.009 68.5415L167.301 68.6625ZM165.328 59.6823C163.945 56.9804 161.99 54.8039 159.47 53.2372L156.148 58.582C157.641 59.5104 158.833 60.8053 159.727 62.5512L165.328 59.6823ZM159.47 53.2372C156.925 51.6553 154.063 50.8917 150.975 50.8917V57.1849C152.985 57.1849 154.679 57.6688 156.148 58.582L159.47 53.2372ZM150.975 50.8917C147.859 50.8917 144.966 51.6962 142.379 53.3306L145.739 58.6514C147.274 57.6821 148.991 57.1849 150.975 57.1849V50.8917ZM142.398 53.3186C139.877 54.8852 137.923 57.0617 136.539 59.7636L142.14 62.6325C143.035 60.8867 144.226 59.5918 145.72 58.6633L142.398 53.3186ZM136.554 59.7354C135.138 62.4327 134.503 65.4366 134.567 68.6637L140.859 68.5403C140.813 66.2348 141.264 64.3028 142.126 62.6607L136.554 59.7354ZM134.567 68.5403C134.503 71.7693 135.139 74.7872 136.539 77.5217L142.14 74.6528C141.263 72.9395 140.813 70.9672 140.859 68.6637L134.567 68.5403ZM136.554 77.5499C137.938 80.1853 139.875 82.3312 142.346 83.9342L145.771 78.6545C144.229 77.6539 143.02 76.3284 142.126 74.6246L136.554 77.5499ZM142.43 83.9862C145.011 85.5488 147.886 86.3122 150.975 86.3122V80.0191C148.965 80.0191 147.229 79.535 145.688 78.6024L142.43 83.9862ZM188.827 88.6982L187.141 91.3555L187.156 91.3647L187.17 91.3737L188.827 88.6982ZM183.62 82.7588L180.77 84.0928L180.781 84.1175L180.793 84.1419L183.62 82.7588ZM181.83 47.2853V44.1387H178.683V47.2853H181.83ZM190.21 47.2853H193.356V44.1387H190.21V47.2853ZM191.349 77.8772L188.439 79.0752L188.461 79.1276L188.484 79.1792L191.349 77.8772ZM194.766 82.0266L193.021 84.6447L193.042 84.6593L193.064 84.6734L194.766 82.0266ZM204.529 82.7588L205.634 85.7051L205.687 85.6852L205.74 85.6634L204.529 82.7588ZM207.865 80.5621L205.705 78.2745L205.672 78.3053L205.64 78.3371L207.865 80.5621ZM210.957 47.2853V44.1387H207.81V47.2853H210.957ZM219.337 47.2853H222.484V44.1387H219.337V47.2853ZM219.337 90V93.1466H222.484V90H219.337ZM210.957 90H207.81V93.1466H210.957V90ZM210.957 81.0503L209.211 78.4321L207.81 79.3662V81.0503H210.957ZM212.421 80.0739L215.415 81.0447L218.207 72.4353L210.676 77.4558L212.421 80.0739ZM209.086 85.5251L206.823 83.3382L206.804 83.358L206.785 83.3781L209.086 85.5251ZM203.634 89.4305L204.892 92.3149L204.923 92.3015L204.953 92.2875L203.634 89.4305ZM196.8 87.667C194.268 87.667 192.199 87.0854 190.483 86.0228L187.17 91.3737C190.01 93.1315 193.258 93.9602 196.8 93.9602V87.667ZM190.512 86.0409C188.817 84.9661 187.459 83.4453 186.446 81.3757L180.793 84.1419C182.276 87.171 184.389 89.6098 187.141 91.3555L190.512 86.0409ZM186.469 81.4249C185.514 79.3847 184.976 76.8242 184.976 73.6464H178.683C178.683 77.5199 179.338 81.0343 180.77 84.0928L186.469 81.4249ZM184.976 73.6464V47.2853H178.683V73.6464H184.976ZM181.83 50.4319H190.21V44.1387H181.83V50.4319ZM187.063 47.2853V71.3683H193.356V47.2853H187.063ZM187.063 71.3683C187.063 74.1747 187.489 76.7686 188.439 79.0752L194.258 76.6791C193.689 75.2973 193.356 73.5519 193.356 71.3683H187.063ZM188.484 79.1792C189.512 81.4393 191.012 83.3055 193.021 84.6447L196.511 79.4085C195.591 78.795 194.813 77.895 194.213 76.5751L188.484 79.1792ZM193.064 84.6734C195.173 86.0288 197.604 86.6377 200.217 86.6377V80.3445C198.6 80.3445 197.397 79.9771 196.468 79.3797L193.064 84.6734ZM200.217 86.6377C202.118 86.6377 203.936 86.342 205.634 85.7051L203.425 79.8126C202.519 80.1521 201.462 80.3445 200.217 80.3445V86.6377ZM205.74 85.6634C207.39 84.9759 208.854 84.0227 210.09 82.7871L205.64 78.3371C205.032 78.9456 204.273 79.457 203.319 79.8543L205.74 85.6634ZM210.026 82.8497C211.339 81.6095 212.344 80.1248 213.048 78.4365L207.239 76.016C206.857 76.9313 206.344 77.6705 205.705 78.2745L210.026 82.8497ZM213.048 78.4365C213.762 76.7225 214.104 74.8974 214.104 72.9955H207.81C207.81 74.1311 207.609 75.1265 207.239 76.016L213.048 78.4365ZM214.104 72.9955V47.2853H207.81V72.9955H214.104ZM210.957 50.4319H219.337V44.1387H210.957V50.4319ZM216.191 47.2853V90H222.484V47.2853H216.191ZM219.337 86.8534H210.957V93.1466H219.337V86.8534ZM214.104 90V81.0503H207.81V90H214.104ZM212.702 83.6684L214.167 82.692L210.676 77.4558L209.211 78.4321L212.702 83.6684ZM209.428 79.1032C208.936 80.6217 208.088 82.0299 206.823 83.3382L211.348 87.7121C213.229 85.7659 214.605 83.54 215.415 81.0447L209.428 79.1032ZM206.785 83.3781C205.558 84.6935 204.079 85.7599 202.316 86.5735L204.953 92.2875C207.421 91.1484 209.576 89.6112 211.386 87.6721L206.785 83.3781ZM202.377 86.546C200.681 87.2853 198.834 87.667 196.8 87.667V93.9602C199.648 93.9602 202.357 93.4198 204.892 92.3149L202.377 86.546ZM231.091 107.899H227.945V111.046H231.091V107.899ZM231.091 47.2853V44.1387H227.945V47.2853H231.091ZM239.553 47.2853H242.699V44.1387H239.553V47.2853ZM239.553 57.0487L238.01 59.7912L242.699 62.4289V57.0487H239.553ZM238.251 56.3164L235.166 55.6993L234.718 57.9391L236.708 59.0589L238.251 56.3164ZM241.017 51.6788L243.202 53.9439L243.222 53.924L243.242 53.9038L241.017 51.6788ZM246.55 48.0176L247.781 50.9135L247.798 50.9062L247.815 50.8987L246.55 48.0176ZM263.636 49.4007L261.946 52.0554L261.946 52.0554L263.636 49.4007ZM270.714 57.2114L273.501 55.7496L273.501 55.7496L270.714 57.2114ZM270.714 79.9926L267.918 78.5494L267.914 78.5582L267.909 78.567L270.714 79.9926ZM263.717 87.8846L265.407 90.5393L265.424 90.5284L265.44 90.5174L263.717 87.8846ZM246.387 89.2677L245.115 92.1459L245.144 92.1584L245.172 92.1703L246.387 89.2677ZM240.448 85.3624L242.635 83.1L242.635 83.1L240.448 85.3624ZM237.437 80.4807L235.946 77.7102L233.842 78.8431L234.368 81.1738L237.437 80.4807ZM239.553 79.3417H242.699V74.0736L238.061 76.5712L239.553 79.3417ZM239.553 107.899V111.046H242.699V107.899H239.553ZM258.917 81.1316L260.611 83.7832L260.611 83.7832L258.917 81.1316ZM263.554 61.2794L260.74 62.6866L260.761 62.7293L260.784 62.7712L263.554 61.2794ZM245.492 56.1537L247.133 58.8386L247.16 58.8222L247.186 58.8053L245.492 56.1537ZM240.855 61.1981L243.641 62.6607L240.855 61.1981ZM240.855 76.0059L238.069 77.4685L238.069 77.4685L240.855 76.0059ZM245.492 81.1316L243.798 83.7832L243.798 83.7832L245.492 81.1316ZM234.238 107.899V47.2853H227.945V107.899H234.238ZM231.091 50.4319H239.553V44.1387H231.091V50.4319ZM236.406 47.2853V57.0487H242.699V47.2853H236.406ZM241.096 54.3062L239.794 53.5739L236.708 59.0589L238.01 59.7912L241.096 54.3062ZM241.337 56.9335C241.506 56.0859 242.019 55.0844 243.202 53.9439L238.833 49.4138C236.978 51.2023 235.647 53.2925 235.166 55.6993L241.337 56.9335ZM243.242 53.9038C244.449 52.697 245.946 51.6932 247.781 50.9135L245.319 45.1216C242.815 46.1861 240.623 47.6231 238.792 49.4538L243.242 53.9038ZM247.815 50.8987C249.657 50.09 251.505 49.6996 253.384 49.6996V43.4065C250.598 43.4065 247.891 43.9924 245.285 45.1364L247.815 50.8987ZM253.384 49.6996C256.692 49.6996 259.513 50.5067 261.946 52.0554L265.325 46.746C261.792 44.4978 257.778 43.4065 253.384 43.4065V49.6996ZM261.946 52.0554C264.44 53.6419 266.432 55.8224 267.928 58.6731L273.501 55.7496C271.525 51.9829 268.799 48.9564 265.325 46.746L261.946 52.0554ZM267.928 58.6731C269.394 61.4686 270.171 64.7509 270.171 68.602H276.464C276.464 63.883 275.506 59.5715 273.501 55.7496L267.928 58.6731ZM270.171 68.602C270.171 72.3906 269.398 75.6831 267.918 78.5494L273.51 81.4357C275.502 77.5762 276.464 73.2749 276.464 68.602H270.171ZM267.909 78.567C266.466 81.4066 264.498 83.6128 261.994 85.2518L265.44 90.5174C268.903 88.2511 271.6 85.1959 273.519 81.4181L267.909 78.567ZM262.028 85.2299C259.58 86.788 256.809 87.5857 253.628 87.5857V93.8788C257.933 93.8788 261.888 92.7781 265.407 90.5393L262.028 85.2299ZM253.628 87.5857C251.556 87.5857 249.555 87.1827 247.602 86.3652L245.172 92.1703C247.884 93.3055 250.71 93.8788 253.628 93.8788V87.5857ZM247.659 86.3896C245.623 85.49 243.964 84.385 242.635 83.1L238.261 87.6248C240.186 89.4858 242.487 90.9844 245.115 92.1459L247.659 86.3896ZM242.635 83.1C241.313 81.8219 240.715 80.7105 240.507 79.7877L234.368 81.1738C234.919 83.6139 236.329 85.7569 238.261 87.6248L242.635 83.1ZM238.929 83.2512L241.045 82.1122L238.061 76.5712L235.946 77.7102L238.929 83.2512ZM236.406 79.3417V107.899H242.699V79.3417H236.406ZM239.553 104.753H231.091V111.046H239.553V104.753ZM252.245 86.1495C255.293 86.1495 258.113 85.3789 260.611 83.7832L257.223 78.48C255.815 79.3794 254.188 79.8563 252.245 79.8563V86.1495ZM260.611 83.7832C263.052 82.224 264.962 80.0937 266.34 77.4685L260.768 74.5432C259.869 76.2572 258.688 77.5442 257.223 78.48L260.611 83.7832ZM266.34 77.4685C267.745 74.7923 268.41 71.8114 268.41 68.602H262.116C262.116 70.9251 261.642 72.8801 260.768 74.5432L266.34 77.4685ZM268.41 68.602C268.41 65.3944 267.746 62.4267 266.325 59.7877L260.784 62.7712C261.641 64.363 262.116 66.277 262.116 68.602H268.41ZM266.369 59.8723C265.042 57.2191 263.147 55.0702 260.692 53.5021L257.304 58.8053C258.755 59.7322 259.897 61.0005 260.74 62.6866L266.369 59.8723ZM260.692 53.5021C258.184 51.8993 255.333 51.1358 252.245 51.1358V57.429C254.257 57.429 255.907 57.913 257.304 58.8053L260.692 53.5021ZM252.245 51.1358C249.158 51.1358 246.307 51.8993 243.798 53.5021L247.186 58.8053C248.583 57.913 250.234 57.429 252.245 57.429V51.1358ZM243.851 53.4688C241.379 54.9796 239.453 57.0994 238.069 59.7354L243.641 62.6607C244.535 60.9575 245.7 59.7144 247.133 58.8386L243.851 53.4688ZM238.069 59.7354C236.664 62.4116 235.999 65.3926 235.999 68.602H242.293C242.293 66.2788 242.768 64.3238 243.641 62.6607L238.069 59.7354ZM235.999 68.602C235.999 71.8114 236.664 74.7923 238.069 77.4685L243.641 74.5432C242.768 72.8801 242.293 70.9251 242.293 68.602H235.999ZM238.069 77.4685C239.447 80.0938 241.358 82.224 243.798 83.7832L247.186 78.48C245.722 77.5442 244.54 76.2572 243.641 74.5432L238.069 77.4685ZM243.798 83.7832C246.307 85.386 249.158 86.1495 252.245 86.1495V79.8563C250.234 79.8563 248.583 79.3723 247.186 78.48L243.798 83.7832ZM91.6189 192H88.4723V195.147H91.6189V192ZM91.6189 135.047V131.9H88.4723V135.047H91.6189ZM100.406 135.047H103.553V131.9H100.406V135.047ZM100.406 192V195.147H103.553V192H100.406ZM95.5242 167.754H92.3777V170.901H95.5242V167.754ZM95.5242 159.293V156.146H92.3777V159.293H95.5242ZM124.896 159.293H128.042V156.146H124.896V159.293ZM124.896 167.754V170.901H128.042V167.754H124.896ZM95.5242 143.509H92.3777V146.655H95.5242V143.509ZM95.5242 135.047V131.9H92.3777V135.047H95.5242ZM128.557 135.047H131.704V131.9H128.557V135.047ZM128.557 143.509V146.655H131.704V143.509H128.557ZM94.7655 192V135.047H88.4723V192H94.7655ZM91.6189 138.194H100.406V131.9H91.6189V138.194ZM97.2593 135.047V192H103.553V135.047H97.2593ZM100.406 188.853H91.6189V195.147H100.406V188.853ZM98.6708 167.754V159.293H92.3777V167.754H98.6708ZM95.5242 162.439H124.896V156.146H95.5242V162.439ZM121.749 159.293V167.754H128.042V159.293H121.749ZM124.896 164.608H95.5242V170.901H124.896V164.608ZM98.6708 143.509V135.047H92.3777V143.509H98.6708ZM95.5242 138.194H128.557V131.9H95.5242V138.194ZM125.41 135.047V143.509H131.704V135.047H125.41ZM128.557 140.362H95.5242V146.655H128.557V140.362ZM139.831 192H136.684V195.147H139.831V192ZM139.831 149.285V146.139H136.684V149.285H139.831ZM148.211 149.285H151.357V146.139H148.211V149.285ZM148.211 192V195.147H151.357V192H148.211ZM139.749 138.464L141.91 136.177L141.91 136.177L139.749 138.464ZM139.749 130.735L137.585 128.451L137.554 128.48L137.524 128.51L139.749 130.735ZM148.048 130.654L145.888 132.941L145.888 132.941L148.048 130.654ZM147.967 138.383L145.803 136.099L145.772 136.128L145.742 136.158L147.967 138.383ZM142.977 192V149.285H136.684V192H142.977ZM139.831 152.432H148.211V146.139H139.831V152.432ZM145.064 149.285V192H151.357V149.285H145.064ZM148.211 188.853H139.831V195.147H148.211V188.853ZM143.899 136.701C142.638 136.701 142.129 136.384 141.91 136.177L137.589 140.752C139.322 142.389 141.579 142.994 143.899 142.994V136.701ZM141.91 136.177C141.714 135.992 141.431 135.607 141.431 134.559H135.138C135.138 136.874 135.832 139.093 137.589 140.752L141.91 136.177ZM141.431 134.559C141.431 133.694 141.672 133.262 141.974 132.96L137.524 128.51C135.874 130.16 135.138 132.278 135.138 134.559H141.431ZM141.913 133.019C142.235 132.714 142.779 132.417 143.899 132.417V126.124C141.547 126.124 139.324 126.803 137.585 128.451L141.913 133.019ZM143.899 132.417C145.159 132.417 145.668 132.734 145.888 132.941L150.209 128.366C148.476 126.729 146.218 126.124 143.899 126.124V132.417ZM145.888 132.941C146.083 133.126 146.366 133.511 146.366 134.559H152.659C152.659 132.244 151.965 130.025 150.209 128.366L145.888 132.941ZM146.366 134.559C146.366 135.371 146.135 135.784 145.803 136.099L150.131 140.667C151.86 139.029 152.659 136.893 152.659 134.559H146.366ZM145.742 136.158C145.498 136.401 145.026 136.701 143.899 136.701V142.994C146.243 142.994 148.483 142.317 150.192 140.608L145.742 136.158ZM175.086 192L172.188 193.225L173 195.147H175.086V192ZM157.024 149.285V146.139H152.277L154.126 150.511L157.024 149.285ZM166.055 149.285L168.969 148.099L168.171 146.139H166.055V149.285ZM179.073 181.26L180.42 184.104L183.109 182.83L181.987 180.074L179.073 181.26ZM177.527 181.993L174.631 180.761L171.39 188.381L178.874 184.836L177.527 181.993ZM191.44 149.285V146.139H189.359L188.544 148.054L191.44 149.285ZM200.064 149.285L202.94 150.562L204.903 146.139H200.064V149.285ZM181.107 192V195.147H183.153L183.983 193.276L181.107 192ZM177.984 190.775L159.922 148.06L154.126 150.511L172.188 193.225L177.984 190.775ZM157.024 152.432H166.055V146.139H157.024V152.432ZM163.141 150.472L176.158 182.447L181.987 180.074L168.969 148.099L163.141 150.472ZM177.726 178.417L176.18 179.149L178.874 184.836L180.42 184.104L177.726 178.417ZM180.422 183.224L194.335 150.517L188.544 148.054L174.631 180.761L180.422 183.224ZM191.44 152.432H200.064V146.139H191.44V152.432ZM197.188 148.009L178.231 190.724L183.983 193.276L202.94 150.562L197.188 148.009ZM181.107 188.853H175.086V195.147H181.107V188.853ZM214.757 190.047L213.211 192.787L213.237 192.802L213.263 192.816L214.757 190.047ZM206.784 182.318L204.066 183.903L204.076 183.92L204.086 183.937L206.784 182.318ZM205.564 161.896L208.493 163.045L208.493 163.045L205.564 161.896ZM210.038 154.737L207.754 152.572L207.753 152.574L210.038 154.737ZM216.954 150.018L218.143 152.931L218.158 152.925L218.173 152.919L216.954 150.018ZM233.47 149.936L232.168 152.801L232.196 152.813L232.223 152.825L233.47 149.936ZM239.654 154.248L237.363 156.405L237.379 156.423L237.396 156.44L239.654 154.248ZM243.722 160.839L240.763 161.909L240.777 161.947L240.792 161.985L243.722 160.839ZM245.105 169.056L248.251 169.128L248.251 169.12L248.251 169.113L245.105 169.056ZM245.024 172.636V175.783H248.1L248.17 172.707L245.024 172.636ZM210.12 172.636L207.09 173.486L207.734 175.783H210.12V172.636ZM208.248 165.964V162.818H204.098L205.219 166.814L208.248 165.964ZM237.783 165.964L240.142 168.046L244.755 162.818H237.783V165.964ZM236.562 167.348H233.416V175.67L238.922 169.429L236.562 167.348ZM236.562 165.395H239.709V165.252L239.696 165.11L236.562 165.395ZM234.772 160.595L237.313 158.738L237.313 158.738L234.772 160.595ZM230.867 157.259L229.421 160.054L229.421 160.054L230.867 157.259ZM218.337 157.747L219.834 160.515L219.862 160.499L219.89 160.483L218.337 157.747ZM213.781 162.629L216.61 164.007L216.617 163.993L216.623 163.979L213.781 162.629ZM214.106 178.331L211.362 179.871L211.37 179.885L211.379 179.9L214.106 178.331ZM219.395 183.376L217.935 186.163L217.935 186.163L219.395 183.376ZM233.145 184.108L232.021 181.169L232.006 181.175L231.992 181.18L233.145 184.108ZM239.084 180.284L241.647 178.458L239.633 175.631L237.017 177.912L239.084 180.284ZM243.315 186.223L245.54 188.448L247.423 186.566L245.878 184.398L243.315 186.223ZM238.515 189.641L237.076 186.842L237.059 186.851L237.043 186.86L238.515 189.641ZM232.575 192L233.376 195.043L233.403 195.036L233.43 195.028L232.575 192ZM226.473 189.667C222.532 189.667 219.152 188.844 216.252 187.278L213.263 192.816C217.197 194.939 221.628 195.96 226.473 195.96V189.667ZM216.304 187.307C213.407 185.672 211.149 183.478 209.482 180.699L204.086 183.937C206.324 187.667 209.382 190.626 213.211 192.787L216.304 187.307ZM209.502 180.733C207.917 178.016 207.083 174.834 207.083 171.09H200.79C200.79 175.808 201.854 180.111 204.066 183.903L209.502 180.733ZM207.083 171.09C207.083 168.069 207.569 165.4 208.493 163.045L202.634 160.748C201.388 163.925 200.79 167.386 200.79 171.09H207.083ZM208.493 163.045C209.442 160.626 210.724 158.591 212.324 156.899L207.753 152.574C205.556 154.896 203.855 157.634 202.634 160.748L208.493 163.045ZM212.323 156.901C213.964 155.168 215.895 153.849 218.143 152.931L215.765 147.104C212.698 148.356 210.018 150.183 207.754 152.572L212.323 156.901ZM218.173 152.919C220.473 151.953 222.984 151.456 225.741 151.456V145.162C222.206 145.162 218.86 145.804 215.736 147.116L218.173 152.919ZM225.741 151.456C228.084 151.456 230.213 151.912 232.168 152.801L234.773 147.072C231.955 145.791 228.931 145.162 225.741 145.162V151.456ZM232.223 152.825C234.226 153.69 235.929 154.882 237.363 156.405L241.945 152.092C239.907 149.926 237.488 148.244 234.718 147.047L232.223 152.825ZM237.396 156.44C238.859 157.947 239.984 159.755 240.763 161.909L246.681 159.768C245.616 156.823 244.029 154.238 241.912 152.057L237.396 156.44ZM240.792 161.985C241.602 164.056 242.007 166.38 241.959 168.999L248.251 169.113C248.312 165.765 247.795 162.612 246.652 159.692L240.792 161.985ZM241.959 168.985L241.878 172.565L248.17 172.707L248.251 169.128L241.959 168.985ZM245.024 169.489H210.12V175.783H245.024V169.489ZM213.149 171.786L211.278 165.115L205.219 166.814L207.09 173.486L213.149 171.786ZM208.248 169.111H237.783V162.818H208.248V169.111ZM235.423 163.883L234.203 165.266L238.922 169.429L240.142 168.046L235.423 163.883ZM239.709 167.348V165.395H233.416V167.348H239.709ZM239.696 165.11C239.483 162.769 238.69 160.623 237.313 158.738L232.232 162.451C232.916 163.387 233.316 164.44 233.429 165.68L239.696 165.11ZM237.313 158.738C235.991 156.929 234.312 155.498 232.313 154.464L229.421 160.054C230.568 160.647 231.493 161.44 232.232 162.451L237.313 158.738ZM232.313 154.464C230.274 153.409 228.067 152.892 225.741 152.892V159.185C227.104 159.185 228.314 159.481 229.421 160.054L232.313 154.464ZM225.741 152.892C222.412 152.892 219.376 153.539 216.784 155.01L219.89 160.483C221.313 159.676 223.213 159.185 225.741 159.185V152.892ZM216.841 154.979C214.214 156.399 212.24 158.539 210.939 161.278L216.623 163.979C217.383 162.379 218.447 161.265 219.834 160.515L216.841 154.979ZM210.952 161.25C209.654 163.915 209.089 167.051 209.089 170.521H215.382C215.382 167.699 215.847 165.573 216.61 164.007L210.952 161.25ZM209.089 170.521C209.089 173.951 209.809 177.102 211.362 179.871L216.851 176.792C215.909 175.113 215.382 173.057 215.382 170.521H209.089ZM211.379 179.9C212.933 182.603 215.142 184.7 217.935 186.163L220.855 180.588C219.091 179.665 217.775 178.399 216.834 176.763L211.379 179.9ZM217.935 186.163C220.731 187.628 223.877 188.312 227.287 188.312V182.019C224.731 182.019 222.615 181.51 220.855 180.588L217.935 186.163ZM227.287 188.312C229.758 188.312 232.106 187.899 234.298 187.036L231.992 181.18C230.604 181.727 229.047 182.019 227.287 182.019V188.312ZM234.269 187.047C236.571 186.167 238.866 184.649 241.152 182.656L237.017 177.912C235.072 179.607 233.408 180.639 232.021 181.169L234.269 187.047ZM236.522 182.11L240.752 188.049L245.878 184.398L241.647 178.458L236.522 182.11ZM241.09 183.998C240.053 185.036 238.729 185.992 237.076 186.842L239.954 192.439C242.097 191.337 243.974 190.014 245.54 188.448L241.09 183.998ZM237.043 186.86C235.405 187.726 233.634 188.432 231.721 188.972L233.43 195.028C235.748 194.375 237.936 193.507 239.987 192.421L237.043 186.86ZM231.775 188.957C229.959 189.435 228.194 189.667 226.473 189.667V195.96C228.767 195.96 231.07 195.65 233.376 195.043L231.775 188.957Z" fill="#393FD6" fill-opacity="0.8"/>
</svg>
