<svg width="136" height="126" viewBox="0 0 136 126" fill="none" xmlns="http://www.w3.org/2000/svg">
<path d="M92.6093 95.0485H73.6979L52.6589 110.141C51.9489 110.651 51.1237 110.944 50.2713 110.988C49.419 111.033 48.5715 110.827 47.8192 110.392C47.067 109.958 46.4382 109.311 45.9999 108.522C45.5616 107.732 45.3303 106.829 45.3307 105.909V95.0485C31.1471 95.0485 21.6914 84.8511 21.6914 69.5551V38.9631C21.6914 23.6671 31.1471 13.4697 45.3307 13.4697H92.6093C106.793 13.4697 116.249 23.6671 116.249 38.9631V69.5551C116.249 84.8511 106.793 95.0485 92.6093 95.0485Z" stroke="#393FD6" stroke-opacity="0.8" stroke-width="14.5436" stroke-miterlimit="10" stroke-linecap="round" stroke-linejoin="round"/>
<path d="M69.3283 60.3468V59.1565C69.3283 55.3022 71.5357 53.2617 73.7432 51.6179C75.8981 50.0309 78.053 47.9903 78.053 44.2494C78.053 39.0347 74.1637 34.8403 69.3283 34.8403C64.4929 34.8403 60.6035 39.0347 60.6035 44.2494M69.302 73.8936H69.3546" stroke="#393FD6" stroke-opacity="0.8" stroke-width="9.70069" stroke-linecap="round" stroke-linejoin="round"/>
</svg>
