<svg width="56" height="56" viewBox="0 0 56 56" fill="none" xmlns="http://www.w3.org/2000/svg">
<path d="M49.1867 20.0201V35.9801C49.1867 38.5934 47.7867 41.0201 45.5234 42.3501L31.6634 50.3534C29.4 51.6601 26.6 51.6601 24.3134 50.3534L10.4534 42.3501C9.33752 41.7031 8.41156 40.7739 7.76853 39.6557C7.1255 38.5376 6.78804 37.2699 6.79005 35.9801V20.0201C6.79005 17.4067 8.19005 14.9801 10.4534 13.6501L24.3134 5.64675C26.5767 4.34008 29.3767 4.34008 31.6634 5.64675L45.5234 13.6501C47.7867 14.9801 49.1867 17.3834 49.1867 20.0201Z" stroke="black" stroke-width="3.5" stroke-linecap="round" stroke-linejoin="round"/>
<path d="M37.3337 38.8732C37.3337 34.6732 33.157 31.2665 28.0003 31.2665C22.8437 31.2665 18.667 34.6732 18.667 38.8732M28.0003 25.6665C29.4422 25.6665 30.8251 25.0938 31.8446 24.0742C32.8642 23.0546 33.437 21.6718 33.437 20.2299C33.437 18.788 32.8642 17.4051 31.8446 16.3856C30.8251 15.366 29.4422 14.7932 28.0003 14.7932C26.5584 14.7932 25.1756 15.366 24.156 16.3856C23.1364 17.4051 22.5637 18.788 22.5637 20.2299C22.5637 21.6718 23.1364 23.0546 24.156 24.0742C25.1756 25.0938 26.5584 25.6665 28.0003 25.6665Z" stroke="black" stroke-width="3.5" stroke-linecap="round" stroke-linejoin="round"/>
</svg>
